<svg xmlns="http://www.w3.org/2000/svg" xmlns:xlink="http://www.w3.org/1999/xlink" width="250" zoomAndPan="magnify" viewBox="0 0 187.5 60" height="80" preserveAspectRatio="xMidYMid meet" version="1.0"><defs><g/><clipPath id="78f099bd85"><path d="M 39 2 L 150 2 L 150 59.917969 L 39 59.917969 Z M 39 2 " clip-rule="nonzero"/></clipPath><clipPath id="a9d6fa8add"><path d="M 37.179688 0.078125 L 148 0.078125 L 148 58 L 37.179688 58 Z M 37.179688 0.078125 " clip-rule="nonzero"/></clipPath><clipPath id="26108c1219"><path d="M 0.828125 0.046875 L 58 0.046875 L 58 20 L 0.828125 20 Z M 0.828125 0.046875 " clip-rule="nonzero"/></clipPath><clipPath id="cfa88b213d"><path d="M 16 7 L 25 7 L 25 19.914062 L 16 19.914062 Z M 16 7 " clip-rule="nonzero"/></clipPath><clipPath id="7a438f462c"><rect x="0" width="58" y="0" height="20"/></clipPath><clipPath id="bb926f85f4"><path d="M 28 15 L 92.027344 15 L 92.027344 35.234375 L 28 35.234375 Z M 28 15 " clip-rule="nonzero"/></clipPath><clipPath id="7a21347239"><rect x="0" width="65" y="0" height="21"/></clipPath><clipPath id="36f5293a78"><rect x="0" width="93" y="0" height="36"/></clipPath></defs><g clip-path="url(#78f099bd85)"><path fill="#ffde00" d="M 142.019531 59.917969 L 47.191406 59.917969 C 46.679688 59.917969 46.171875 59.867188 45.671875 59.769531 C 45.167969 59.667969 44.683594 59.519531 44.210938 59.324219 C 43.734375 59.128906 43.285156 58.890625 42.863281 58.605469 C 42.4375 58.320312 42.042969 57.996094 41.679688 57.636719 C 41.320312 57.273438 40.996094 56.878906 40.710938 56.453125 C 40.425781 56.027344 40.1875 55.578125 39.992188 55.105469 C 39.792969 54.632812 39.648438 54.148438 39.546875 53.644531 C 39.445312 53.144531 39.398438 52.636719 39.398438 52.125 L 39.398438 10.09375 C 39.398438 9.582031 39.445312 9.074219 39.546875 8.570312 C 39.648438 8.070312 39.792969 7.582031 39.992188 7.109375 C 40.1875 6.636719 40.425781 6.1875 40.710938 5.761719 C 40.996094 5.335938 41.320312 4.941406 41.679688 4.582031 C 42.042969 4.21875 42.4375 3.894531 42.863281 3.613281 C 43.285156 3.328125 43.734375 3.085938 44.210938 2.890625 C 44.683594 2.695312 45.167969 2.546875 45.671875 2.449219 C 46.171875 2.347656 46.679688 2.296875 47.191406 2.296875 L 142.019531 2.296875 C 142.53125 2.296875 143.039062 2.347656 143.539062 2.449219 C 144.042969 2.546875 144.527344 2.695312 145 2.890625 C 145.476562 3.085938 145.921875 3.328125 146.347656 3.613281 C 146.773438 3.894531 147.167969 4.21875 147.53125 4.582031 C 147.890625 4.941406 148.214844 5.335938 148.5 5.761719 C 148.785156 6.1875 149.023438 6.636719 149.21875 7.109375 C 149.417969 7.582031 149.5625 8.070312 149.664062 8.570312 C 149.761719 9.074219 149.8125 9.582031 149.8125 10.09375 L 149.8125 52.125 C 149.8125 52.636719 149.761719 53.144531 149.664062 53.644531 C 149.5625 54.148438 149.417969 54.632812 149.21875 55.105469 C 149.023438 55.578125 148.785156 56.027344 148.5 56.453125 C 148.214844 56.878906 147.890625 57.273438 147.53125 57.636719 C 147.167969 57.996094 146.773438 58.320312 146.347656 58.605469 C 145.921875 58.890625 145.476562 59.128906 145 59.324219 C 144.527344 59.519531 144.042969 59.667969 143.539062 59.769531 C 143.039062 59.867188 142.53125 59.917969 142.019531 59.917969 Z M 142.019531 59.917969 " fill-opacity="1" fill-rule="nonzero"/></g><g clip-path="url(#a9d6fa8add)"><path fill="#ffffff" d="M 139.800781 57.703125 L 44.976562 57.703125 C 44.464844 57.703125 43.957031 57.652344 43.453125 57.550781 C 42.953125 57.453125 42.464844 57.304688 41.992188 57.109375 C 41.519531 56.914062 41.070312 56.671875 40.644531 56.386719 C 40.21875 56.105469 39.824219 55.78125 39.464844 55.417969 C 39.101562 55.058594 38.777344 54.664062 38.492188 54.238281 C 38.210938 53.8125 37.96875 53.363281 37.773438 52.890625 C 37.578125 52.417969 37.429688 51.929688 37.328125 51.429688 C 37.230469 50.925781 37.179688 50.417969 37.179688 49.90625 L 37.179688 7.875 C 37.179688 7.363281 37.230469 6.855469 37.328125 6.355469 C 37.429688 5.851562 37.578125 5.367188 37.773438 4.894531 C 37.96875 4.421875 38.210938 3.972656 38.492188 3.546875 C 38.777344 3.121094 39.101562 2.726562 39.464844 2.363281 C 39.824219 2.003906 40.21875 1.679688 40.644531 1.394531 C 41.070312 1.109375 41.519531 0.871094 41.992188 0.675781 C 42.464844 0.480469 42.953125 0.332031 43.453125 0.230469 C 43.957031 0.132812 44.464844 0.0820312 44.976562 0.0820312 L 139.800781 0.0820312 C 140.3125 0.0820312 140.820312 0.132812 141.324219 0.230469 C 141.824219 0.332031 142.3125 0.480469 142.785156 0.675781 C 143.257812 0.871094 143.707031 1.109375 144.132812 1.394531 C 144.558594 1.679688 144.953125 2.003906 145.3125 2.363281 C 145.675781 2.726562 146 3.121094 146.28125 3.546875 C 146.566406 3.972656 146.808594 4.421875 147.003906 4.894531 C 147.199219 5.367188 147.347656 5.851562 147.445312 6.355469 C 147.546875 6.855469 147.597656 7.363281 147.597656 7.875 L 147.597656 49.90625 C 147.597656 50.417969 147.546875 50.925781 147.445312 51.429688 C 147.347656 51.929688 147.199219 52.417969 147.003906 52.890625 C 146.808594 53.363281 146.566406 53.8125 146.28125 54.238281 C 146 54.664062 145.675781 55.058594 145.3125 55.417969 C 144.953125 55.78125 144.558594 56.105469 144.132812 56.386719 C 143.707031 56.671875 143.257812 56.914062 142.785156 57.109375 C 142.3125 57.304688 141.824219 57.453125 141.324219 57.550781 C 140.820312 57.652344 140.3125 57.703125 139.800781 57.703125 Z M 139.800781 57.703125 " fill-opacity="1" fill-rule="nonzero"/></g><path fill="#0ba14b" d="M 127.484375 54.886719 L 48.167969 54.886719 C 47.628906 54.886719 47.097656 54.832031 46.570312 54.730469 C 46.046875 54.625 45.535156 54.46875 45.039062 54.265625 C 44.542969 54.058594 44.074219 53.808594 43.628906 53.507812 C 43.179688 53.210938 42.769531 52.871094 42.390625 52.492188 C 42.011719 52.113281 41.671875 51.699219 41.375 51.253906 C 41.074219 50.808594 40.824219 50.339844 40.617188 49.84375 C 40.414062 49.347656 40.257812 48.835938 40.152344 48.308594 C 40.046875 47.785156 39.996094 47.253906 39.996094 46.714844 L 39.996094 20.191406 L 40.746094 20.191406 L 40.746094 46.714844 C 40.746094 50.808594 44.074219 54.136719 48.167969 54.136719 L 127.484375 54.136719 Z M 127.484375 54.886719 " fill-opacity="1" fill-rule="nonzero"/><path fill="#0ba14b" d="M 144.78125 37.589844 L 144.03125 37.589844 L 144.03125 11.066406 C 144.03125 6.976562 140.703125 3.648438 136.613281 3.648438 L 57.289062 3.648438 L 57.289062 2.898438 L 136.609375 2.898438 C 137.148438 2.898438 137.679688 2.949219 138.203125 3.054688 C 138.730469 3.160156 139.242188 3.3125 139.738281 3.519531 C 140.234375 3.722656 140.703125 3.976562 141.152344 4.273438 C 141.597656 4.570312 142.007812 4.910156 142.390625 5.289062 C 142.769531 5.667969 143.105469 6.082031 143.40625 6.527344 C 143.703125 6.972656 143.953125 7.445312 144.160156 7.941406 C 144.367188 8.4375 144.519531 8.945312 144.625 9.472656 C 144.730469 10 144.78125 10.53125 144.78125 11.066406 Z M 144.78125 37.589844 " fill-opacity="1" fill-rule="nonzero"/><path fill="#0ba14b" d="M 44.335938 7.707031 C 44.335938 8.671875 43.652344 9.308594 42.738281 9.308594 C 41.804688 9.308594 41.121094 8.65625 41.121094 7.707031 C 41.121094 7.273438 41.1875 6.957031 41.570312 6.042969 L 42.539062 3.644531 L 44.1875 3.644531 L 43.453125 6.289062 C 44.003906 6.523438 44.335938 7.023438 44.335938 7.707031 Z M 48.269531 7.707031 C 48.269531 8.671875 47.585938 9.308594 46.667969 9.308594 C 45.734375 9.308594 45.054688 8.65625 45.054688 7.707031 C 45.054688 7.273438 45.121094 6.957031 45.503906 6.042969 L 46.46875 3.644531 L 48.117188 3.644531 L 47.386719 6.289062 C 47.9375 6.523438 48.269531 7.023438 48.269531 7.707031 Z M 48.269531 7.707031 " fill-opacity="1" fill-rule="nonzero"/><path fill="#0ba14b" d="M 140.441406 50.074219 C 140.441406 49.109375 141.125 48.476562 142.039062 48.476562 C 142.972656 48.476562 143.65625 49.125 143.65625 50.074219 C 143.65625 50.507812 143.589844 50.828125 143.203125 51.742188 L 142.238281 54.140625 L 140.589844 54.140625 L 141.320312 51.492188 C 140.773438 51.257812 140.441406 50.757812 140.441406 50.074219 Z M 136.507812 50.074219 C 136.507812 49.109375 137.191406 48.476562 138.105469 48.476562 C 139.039062 48.476562 139.722656 49.125 139.722656 50.074219 C 139.722656 50.507812 139.65625 50.828125 139.273438 51.742188 L 138.304688 54.140625 L 136.65625 54.140625 L 137.390625 51.492188 C 136.839844 51.257812 136.507812 50.757812 136.507812 50.074219 Z M 136.507812 50.074219 " fill-opacity="1" fill-rule="nonzero"/><g transform="matrix(1, 0, 0, 1, 48, 12)"><g clip-path="url(#36f5293a78)"><g clip-path="url(#26108c1219)"><g transform="matrix(1, 0, 0, 1, 0, -0.000000000000005329)"><g clip-path="url(#7a438f462c)"><g fill="#0ba14b" fill-opacity="1"><g transform="translate(1.060297, 15.961328)"><g><path d="M 5.875 -3.109375 C 6.101562 -3.109375 6.257812 -3.003906 6.34375 -2.796875 C 6.363281 -2.734375 6.398438 -2.597656 6.453125 -2.390625 C 6.503906 -2.179688 6.550781 -1.957031 6.59375 -1.71875 C 6.644531 -1.476562 6.6875 -1.265625 6.71875 -1.078125 C 6.757812 -0.890625 6.78125 -0.769531 6.78125 -0.71875 C 6.78125 -0.539062 6.675781 -0.441406 6.46875 -0.421875 C 6.238281 -0.398438 5.910156 -0.367188 5.484375 -0.328125 C 5.054688 -0.285156 4.609375 -0.242188 4.140625 -0.203125 C 3.671875 -0.160156 3.25 -0.117188 2.875 -0.078125 C 2.507812 -0.046875 2.265625 -0.03125 2.140625 -0.03125 C 2.054688 -0.03125 1.976562 -0.0390625 1.90625 -0.0625 C 1.832031 -0.09375 1.765625 -0.140625 1.703125 -0.203125 C 1.578125 -0.347656 1.429688 -0.535156 1.265625 -0.765625 C 1.097656 -0.992188 0.945312 -1.21875 0.8125 -1.4375 C 0.675781 -1.65625 0.578125 -1.832031 0.515625 -1.96875 C 0.421875 -2.144531 0.375 -2.316406 0.375 -2.484375 C 0.375 -2.734375 0.40625 -3.117188 0.46875 -3.640625 C 0.539062 -4.160156 0.632812 -4.753906 0.75 -5.421875 C 0.875 -6.097656 1.007812 -6.789062 1.15625 -7.5 C 1.3125 -8.21875 1.46875 -8.898438 1.625 -9.546875 C 1.789062 -10.191406 1.960938 -10.738281 2.140625 -11.1875 C 2.203125 -11.34375 2.328125 -11.421875 2.515625 -11.421875 C 2.617188 -11.421875 2.816406 -11.382812 3.109375 -11.3125 C 3.398438 -11.25 3.695312 -11.171875 4 -11.078125 C 4.3125 -10.992188 4.5625 -10.914062 4.75 -10.84375 C 4.882812 -10.789062 4.953125 -10.679688 4.953125 -10.515625 C 4.953125 -10.503906 4.945312 -10.484375 4.9375 -10.453125 C 4.9375 -10.421875 4.9375 -10.40625 4.9375 -10.40625 C 4.8125 -10.019531 4.648438 -9.457031 4.453125 -8.71875 C 4.265625 -7.976562 4.070312 -7.140625 3.875 -6.203125 C 3.675781 -5.265625 3.492188 -4.289062 3.328125 -3.28125 C 3.328125 -3.28125 3.320312 -3.265625 3.3125 -3.234375 C 3.3125 -3.210938 3.3125 -3.195312 3.3125 -3.1875 C 3.3125 -3.03125 3.390625 -2.953125 3.546875 -2.953125 C 3.585938 -2.953125 3.722656 -2.957031 3.953125 -2.96875 C 4.179688 -2.988281 4.4375 -3.003906 4.71875 -3.015625 C 5 -3.035156 5.25 -3.054688 5.46875 -3.078125 C 5.695312 -3.097656 5.832031 -3.109375 5.875 -3.109375 Z M 5.875 -3.109375 "/></g></g></g><g fill="#0ba14b" fill-opacity="1"><g transform="translate(7.940722, 15.961328)"><g><path d="M 5.21875 -0.421875 C 5.070312 -0.460938 4.972656 -0.53125 4.921875 -0.625 C 4.867188 -0.71875 4.832031 -0.800781 4.8125 -0.875 L 4.765625 -1.4375 C 4.765625 -1.53125 4.742188 -1.578125 4.703125 -1.578125 C 4.660156 -1.578125 4.625 -1.539062 4.59375 -1.46875 C 4.320312 -1.007812 4.039062 -0.648438 3.75 -0.390625 C 3.46875 -0.128906 3.191406 0 2.921875 0 C 2.617188 0 2.3125 -0.078125 2 -0.234375 C 1.695312 -0.398438 1.410156 -0.625 1.140625 -0.90625 C 0.878906 -1.195312 0.664062 -1.523438 0.5 -1.890625 C 0.332031 -2.265625 0.25 -2.65625 0.25 -3.0625 C 0.25 -3.46875 0.289062 -3.921875 0.375 -4.421875 C 0.46875 -4.929688 0.601562 -5.4375 0.78125 -5.9375 C 0.957031 -6.445312 1.191406 -6.910156 1.484375 -7.328125 C 1.785156 -7.753906 2.144531 -8.097656 2.5625 -8.359375 C 2.976562 -8.617188 3.460938 -8.75 4.015625 -8.75 C 4.316406 -8.75 4.707031 -8.675781 5.1875 -8.53125 C 5.675781 -8.382812 6.171875 -8.195312 6.671875 -7.96875 C 7.179688 -7.738281 7.628906 -7.492188 8.015625 -7.234375 C 8.148438 -7.148438 8.21875 -7.035156 8.21875 -6.890625 C 8.21875 -6.867188 8.210938 -6.835938 8.203125 -6.796875 C 8.203125 -6.765625 8.203125 -6.75 8.203125 -6.75 C 7.972656 -5.914062 7.789062 -5.09375 7.65625 -4.28125 C 7.519531 -3.46875 7.421875 -2.71875 7.359375 -2.03125 C 7.296875 -1.351562 7.257812 -0.785156 7.25 -0.328125 C 7.238281 -0.242188 7.207031 -0.171875 7.15625 -0.109375 C 7.113281 -0.0546875 7.050781 -0.03125 6.96875 -0.03125 C 6.882812 -0.03125 6.726562 -0.0546875 6.5 -0.109375 C 6.28125 -0.160156 6.046875 -0.21875 5.796875 -0.28125 C 5.554688 -0.34375 5.363281 -0.390625 5.21875 -0.421875 Z M 4.375 -3.265625 C 4.476562 -3.367188 4.539062 -3.484375 4.5625 -3.609375 C 4.613281 -4.003906 4.6875 -4.398438 4.78125 -4.796875 C 4.875 -5.191406 4.957031 -5.582031 5.03125 -5.96875 L 5.03125 -6.046875 C 5.03125 -6.171875 4.988281 -6.257812 4.90625 -6.3125 C 4.832031 -6.375 4.738281 -6.40625 4.625 -6.40625 C 4.382812 -6.40625 4.175781 -6.296875 4 -6.078125 C 3.820312 -5.859375 3.664062 -5.582031 3.53125 -5.25 C 3.40625 -4.925781 3.3125 -4.59375 3.25 -4.25 C 3.1875 -3.914062 3.15625 -3.628906 3.15625 -3.390625 C 3.15625 -2.910156 3.234375 -2.671875 3.390625 -2.671875 C 3.515625 -2.671875 3.671875 -2.734375 3.859375 -2.859375 C 4.046875 -2.984375 4.21875 -3.117188 4.375 -3.265625 Z M 4.375 -3.265625 "/></g></g></g><g clip-path="url(#cfa88b213d)"><g fill="#0ba14b" fill-opacity="1"><g transform="translate(16.092206, 15.961328)"><g><path d="M 5.671875 -8.40625 C 5.753906 -8.5625 5.875 -8.640625 6.03125 -8.640625 C 6.113281 -8.640625 6.253906 -8.613281 6.453125 -8.5625 C 6.648438 -8.519531 6.863281 -8.457031 7.09375 -8.375 C 7.320312 -8.289062 7.535156 -8.207031 7.734375 -8.125 C 7.929688 -8.050781 8.070312 -7.988281 8.15625 -7.9375 C 8.28125 -7.84375 8.34375 -7.722656 8.34375 -7.578125 C 8.34375 -7.566406 8.335938 -7.539062 8.328125 -7.5 C 8.328125 -7.46875 8.328125 -7.453125 8.328125 -7.453125 C 8.242188 -7.140625 8.140625 -6.707031 8.015625 -6.15625 C 7.898438 -5.613281 7.773438 -5.007812 7.640625 -4.34375 C 7.515625 -3.6875 7.382812 -3.019531 7.25 -2.34375 C 7.125 -1.675781 7.015625 -1.050781 6.921875 -0.46875 C 6.867188 -0.207031 6.769531 0.117188 6.625 0.515625 C 6.476562 0.910156 6.269531 1.300781 6 1.6875 C 5.726562 2.082031 5.367188 2.410156 4.921875 2.671875 C 4.484375 2.941406 3.953125 3.078125 3.328125 3.078125 C 3.066406 3.078125 2.785156 3.035156 2.484375 2.953125 C 2.191406 2.867188 1.914062 2.765625 1.65625 2.640625 C 1.394531 2.515625 1.179688 2.40625 1.015625 2.3125 C 0.867188 2.226562 0.796875 2.09375 0.796875 1.90625 C 0.796875 1.851562 0.800781 1.804688 0.8125 1.765625 C 0.820312 1.722656 0.828125 1.703125 0.828125 1.703125 C 0.859375 1.578125 0.90625 1.394531 0.96875 1.15625 C 1.03125 0.925781 1.09375 0.722656 1.15625 0.546875 C 1.207031 0.367188 1.296875 0.28125 1.421875 0.28125 C 1.441406 0.28125 1.46875 0.285156 1.5 0.296875 C 1.539062 0.316406 1.5625 0.328125 1.5625 0.328125 C 1.84375 0.429688 2.09375 0.503906 2.3125 0.546875 C 2.53125 0.597656 2.710938 0.625 2.859375 0.625 C 3.171875 0.625 3.425781 0.550781 3.625 0.40625 C 3.820312 0.257812 3.984375 0.0820312 4.109375 -0.125 C 4.234375 -0.34375 4.316406 -0.554688 4.359375 -0.765625 C 4.410156 -0.972656 4.4375 -1.140625 4.4375 -1.265625 C 4.4375 -1.367188 4.425781 -1.421875 4.40625 -1.421875 C 4.40625 -1.421875 4.378906 -1.390625 4.328125 -1.328125 C 4.078125 -0.992188 3.816406 -0.722656 3.546875 -0.515625 C 3.273438 -0.316406 3.007812 -0.21875 2.75 -0.21875 C 2.507812 -0.21875 2.25 -0.289062 1.96875 -0.4375 C 1.6875 -0.582031 1.414062 -0.78125 1.15625 -1.03125 C 0.90625 -1.28125 0.695312 -1.554688 0.53125 -1.859375 C 0.363281 -2.171875 0.28125 -2.484375 0.28125 -2.796875 C 0.28125 -3.484375 0.34375 -4.1875 0.46875 -4.90625 C 0.601562 -5.632812 0.757812 -6.300781 0.9375 -6.90625 C 1.125 -7.519531 1.285156 -7.992188 1.421875 -8.328125 C 1.484375 -8.503906 1.613281 -8.59375 1.8125 -8.59375 C 1.851562 -8.59375 1.96875 -8.5625 2.15625 -8.5 C 2.351562 -8.4375 2.570312 -8.359375 2.8125 -8.265625 C 3.0625 -8.179688 3.285156 -8.097656 3.484375 -8.015625 C 3.691406 -7.929688 3.832031 -7.863281 3.90625 -7.8125 C 4 -7.75 4.046875 -7.632812 4.046875 -7.46875 C 4.046875 -7.445312 4.039062 -7.421875 4.03125 -7.390625 C 4.03125 -7.359375 4.03125 -7.34375 4.03125 -7.34375 C 3.957031 -7.101562 3.867188 -6.789062 3.765625 -6.40625 C 3.671875 -6.019531 3.578125 -5.613281 3.484375 -5.1875 C 3.390625 -4.757812 3.3125 -4.359375 3.25 -3.984375 C 3.1875 -3.609375 3.15625 -3.304688 3.15625 -3.078125 C 3.15625 -2.867188 3.191406 -2.765625 3.265625 -2.765625 C 3.460938 -2.765625 3.679688 -2.867188 3.921875 -3.078125 C 4.171875 -3.296875 4.375 -3.535156 4.53125 -3.796875 C 4.59375 -3.910156 4.628906 -4.015625 4.640625 -4.109375 C 4.710938 -4.535156 4.800781 -5.015625 4.90625 -5.546875 C 5.007812 -6.078125 5.128906 -6.597656 5.265625 -7.109375 C 5.398438 -7.628906 5.535156 -8.0625 5.671875 -8.40625 Z M 5.671875 -8.40625 "/></g></g></g></g><g fill="#0ba14b" fill-opacity="1"><g transform="translate(24.24369, 15.961328)"><g><path d="M 5.21875 -0.421875 C 5.070312 -0.460938 4.972656 -0.53125 4.921875 -0.625 C 4.867188 -0.71875 4.832031 -0.800781 4.8125 -0.875 L 4.765625 -1.4375 C 4.765625 -1.53125 4.742188 -1.578125 4.703125 -1.578125 C 4.660156 -1.578125 4.625 -1.539062 4.59375 -1.46875 C 4.320312 -1.007812 4.039062 -0.648438 3.75 -0.390625 C 3.46875 -0.128906 3.191406 0 2.921875 0 C 2.617188 0 2.3125 -0.078125 2 -0.234375 C 1.695312 -0.398438 1.410156 -0.625 1.140625 -0.90625 C 0.878906 -1.195312 0.664062 -1.523438 0.5 -1.890625 C 0.332031 -2.265625 0.25 -2.65625 0.25 -3.0625 C 0.25 -3.46875 0.289062 -3.921875 0.375 -4.421875 C 0.46875 -4.929688 0.601562 -5.4375 0.78125 -5.9375 C 0.957031 -6.445312 1.191406 -6.910156 1.484375 -7.328125 C 1.785156 -7.753906 2.144531 -8.097656 2.5625 -8.359375 C 2.976562 -8.617188 3.460938 -8.75 4.015625 -8.75 C 4.316406 -8.75 4.707031 -8.675781 5.1875 -8.53125 C 5.675781 -8.382812 6.171875 -8.195312 6.671875 -7.96875 C 7.179688 -7.738281 7.628906 -7.492188 8.015625 -7.234375 C 8.148438 -7.148438 8.21875 -7.035156 8.21875 -6.890625 C 8.21875 -6.867188 8.210938 -6.835938 8.203125 -6.796875 C 8.203125 -6.765625 8.203125 -6.75 8.203125 -6.75 C 7.972656 -5.914062 7.789062 -5.09375 7.65625 -4.28125 C 7.519531 -3.46875 7.421875 -2.71875 7.359375 -2.03125 C 7.296875 -1.351562 7.257812 -0.785156 7.25 -0.328125 C 7.238281 -0.242188 7.207031 -0.171875 7.15625 -0.109375 C 7.113281 -0.0546875 7.050781 -0.03125 6.96875 -0.03125 C 6.882812 -0.03125 6.726562 -0.0546875 6.5 -0.109375 C 6.28125 -0.160156 6.046875 -0.21875 5.796875 -0.28125 C 5.554688 -0.34375 5.363281 -0.390625 5.21875 -0.421875 Z M 4.375 -3.265625 C 4.476562 -3.367188 4.539062 -3.484375 4.5625 -3.609375 C 4.613281 -4.003906 4.6875 -4.398438 4.78125 -4.796875 C 4.875 -5.191406 4.957031 -5.582031 5.03125 -5.96875 L 5.03125 -6.046875 C 5.03125 -6.171875 4.988281 -6.257812 4.90625 -6.3125 C 4.832031 -6.375 4.738281 -6.40625 4.625 -6.40625 C 4.382812 -6.40625 4.175781 -6.296875 4 -6.078125 C 3.820312 -5.859375 3.664062 -5.582031 3.53125 -5.25 C 3.40625 -4.925781 3.3125 -4.59375 3.25 -4.25 C 3.1875 -3.914062 3.15625 -3.628906 3.15625 -3.390625 C 3.15625 -2.910156 3.234375 -2.671875 3.390625 -2.671875 C 3.515625 -2.671875 3.671875 -2.734375 3.859375 -2.859375 C 4.046875 -2.984375 4.21875 -3.117188 4.375 -3.265625 Z M 4.375 -3.265625 "/></g></g></g><g fill="#0ba14b" fill-opacity="1"><g transform="translate(32.395174, 15.961328)"><g><path d="M 4.125 -7.3125 C 4.40625 -7.726562 4.703125 -8.066406 5.015625 -8.328125 C 5.335938 -8.585938 5.648438 -8.71875 5.953125 -8.71875 C 6.148438 -8.71875 6.375 -8.648438 6.625 -8.515625 C 6.875 -8.378906 7.113281 -8.203125 7.34375 -7.984375 C 7.570312 -7.765625 7.757812 -7.535156 7.90625 -7.296875 C 8.050781 -7.066406 8.125 -6.84375 8.125 -6.625 C 8.125 -6.457031 8.097656 -6.191406 8.046875 -5.828125 C 7.992188 -5.472656 7.925781 -5.050781 7.84375 -4.5625 C 7.769531 -4.082031 7.679688 -3.582031 7.578125 -3.0625 C 7.472656 -2.539062 7.367188 -2.039062 7.265625 -1.5625 C 7.160156 -1.082031 7.0625 -0.664062 6.96875 -0.3125 C 6.945312 -0.226562 6.898438 -0.15625 6.828125 -0.09375 C 6.753906 -0.0390625 6.671875 -0.015625 6.578125 -0.015625 C 6.441406 -0.015625 6.222656 -0.0546875 5.921875 -0.140625 C 5.617188 -0.234375 5.328125 -0.335938 5.046875 -0.453125 C 4.765625 -0.578125 4.566406 -0.675781 4.453125 -0.75 C 4.304688 -0.851562 4.234375 -0.976562 4.234375 -1.125 C 4.234375 -1.15625 4.234375 -1.179688 4.234375 -1.203125 C 4.242188 -1.234375 4.25 -1.25 4.25 -1.25 C 4.3125 -1.488281 4.382812 -1.800781 4.46875 -2.1875 C 4.550781 -2.582031 4.632812 -2.992188 4.71875 -3.421875 C 4.8125 -3.859375 4.882812 -4.269531 4.9375 -4.65625 C 5 -5.050781 5.03125 -5.375 5.03125 -5.625 C 5.03125 -5.894531 4.988281 -6.03125 4.90625 -6.03125 C 4.820312 -6.03125 4.671875 -5.96875 4.453125 -5.84375 C 4.242188 -5.71875 4.050781 -5.566406 3.875 -5.390625 C 3.800781 -5.304688 3.742188 -5.21875 3.703125 -5.125 C 3.660156 -5.03125 3.628906 -4.9375 3.609375 -4.84375 C 3.503906 -4.320312 3.394531 -3.769531 3.28125 -3.1875 C 3.175781 -2.613281 3.070312 -2.070312 2.96875 -1.5625 C 2.863281 -1.050781 2.78125 -0.632812 2.71875 -0.3125 C 2.65625 -0.125 2.539062 -0.03125 2.375 -0.03125 C 2.226562 -0.03125 2.003906 -0.0664062 1.703125 -0.140625 C 1.410156 -0.222656 1.125 -0.316406 0.84375 -0.421875 C 0.5625 -0.523438 0.367188 -0.601562 0.265625 -0.65625 C 0.191406 -0.707031 0.132812 -0.769531 0.09375 -0.84375 C 0.0625 -0.925781 0.046875 -1.003906 0.046875 -1.078125 C 0.046875 -1.109375 0.046875 -1.140625 0.046875 -1.171875 C 0.0546875 -1.203125 0.0625 -1.21875 0.0625 -1.21875 C 0.125 -1.5 0.191406 -1.878906 0.265625 -2.359375 C 0.347656 -2.835938 0.4375 -3.367188 0.53125 -3.953125 C 0.625 -4.535156 0.710938 -5.117188 0.796875 -5.703125 C 0.890625 -6.285156 0.972656 -6.820312 1.046875 -7.3125 C 1.117188 -7.800781 1.175781 -8.195312 1.21875 -8.5 C 1.238281 -8.582031 1.285156 -8.648438 1.359375 -8.703125 C 1.429688 -8.753906 1.507812 -8.78125 1.59375 -8.78125 C 1.707031 -8.78125 1.898438 -8.753906 2.171875 -8.703125 C 2.453125 -8.660156 2.726562 -8.613281 3 -8.5625 C 3.28125 -8.507812 3.476562 -8.457031 3.59375 -8.40625 C 3.78125 -8.34375 3.882812 -8.1875 3.90625 -7.9375 L 3.9375 -7.375 C 3.9375 -7.269531 3.957031 -7.21875 4 -7.21875 C 4.019531 -7.21875 4.046875 -7.234375 4.078125 -7.265625 C 4.109375 -7.296875 4.125 -7.3125 4.125 -7.3125 Z M 4.125 -7.3125 "/></g></g></g><g fill="#0ba14b" fill-opacity="1"><g transform="translate(40.563607, 15.961328)"><g><path d="M 5.21875 -0.421875 C 5.070312 -0.460938 4.972656 -0.53125 4.921875 -0.625 C 4.867188 -0.71875 4.832031 -0.800781 4.8125 -0.875 L 4.765625 -1.4375 C 4.765625 -1.53125 4.742188 -1.578125 4.703125 -1.578125 C 4.660156 -1.578125 4.625 -1.539062 4.59375 -1.46875 C 4.320312 -1.007812 4.039062 -0.648438 3.75 -0.390625 C 3.46875 -0.128906 3.191406 0 2.921875 0 C 2.617188 0 2.3125 -0.078125 2 -0.234375 C 1.695312 -0.398438 1.410156 -0.625 1.140625 -0.90625 C 0.878906 -1.195312 0.664062 -1.523438 0.5 -1.890625 C 0.332031 -2.265625 0.25 -2.65625 0.25 -3.0625 C 0.25 -3.46875 0.289062 -3.921875 0.375 -4.421875 C 0.46875 -4.929688 0.601562 -5.4375 0.78125 -5.9375 C 0.957031 -6.445312 1.191406 -6.910156 1.484375 -7.328125 C 1.785156 -7.753906 2.144531 -8.097656 2.5625 -8.359375 C 2.976562 -8.617188 3.460938 -8.75 4.015625 -8.75 C 4.316406 -8.75 4.707031 -8.675781 5.1875 -8.53125 C 5.675781 -8.382812 6.171875 -8.195312 6.671875 -7.96875 C 7.179688 -7.738281 7.628906 -7.492188 8.015625 -7.234375 C 8.148438 -7.148438 8.21875 -7.035156 8.21875 -6.890625 C 8.21875 -6.867188 8.210938 -6.835938 8.203125 -6.796875 C 8.203125 -6.765625 8.203125 -6.75 8.203125 -6.75 C 7.972656 -5.914062 7.789062 -5.09375 7.65625 -4.28125 C 7.519531 -3.46875 7.421875 -2.71875 7.359375 -2.03125 C 7.296875 -1.351562 7.257812 -0.785156 7.25 -0.328125 C 7.238281 -0.242188 7.207031 -0.171875 7.15625 -0.109375 C 7.113281 -0.0546875 7.050781 -0.03125 6.96875 -0.03125 C 6.882812 -0.03125 6.726562 -0.0546875 6.5 -0.109375 C 6.28125 -0.160156 6.046875 -0.21875 5.796875 -0.28125 C 5.554688 -0.34375 5.363281 -0.390625 5.21875 -0.421875 Z M 4.375 -3.265625 C 4.476562 -3.367188 4.539062 -3.484375 4.5625 -3.609375 C 4.613281 -4.003906 4.6875 -4.398438 4.78125 -4.796875 C 4.875 -5.191406 4.957031 -5.582031 5.03125 -5.96875 L 5.03125 -6.046875 C 5.03125 -6.171875 4.988281 -6.257812 4.90625 -6.3125 C 4.832031 -6.375 4.738281 -6.40625 4.625 -6.40625 C 4.382812 -6.40625 4.175781 -6.296875 4 -6.078125 C 3.820312 -5.859375 3.664062 -5.582031 3.53125 -5.25 C 3.40625 -4.925781 3.3125 -4.59375 3.25 -4.25 C 3.1875 -3.914062 3.15625 -3.628906 3.15625 -3.390625 C 3.15625 -2.910156 3.234375 -2.671875 3.390625 -2.671875 C 3.515625 -2.671875 3.671875 -2.734375 3.859375 -2.859375 C 4.046875 -2.984375 4.21875 -3.117188 4.375 -3.265625 Z M 4.375 -3.265625 "/></g></g></g><g fill="#0ba14b" fill-opacity="1"><g transform="translate(48.715091, 15.961328)"><g><path d="M 4.125 -7.3125 C 4.40625 -7.726562 4.703125 -8.066406 5.015625 -8.328125 C 5.335938 -8.585938 5.648438 -8.71875 5.953125 -8.71875 C 6.148438 -8.71875 6.375 -8.648438 6.625 -8.515625 C 6.875 -8.378906 7.113281 -8.203125 7.34375 -7.984375 C 7.570312 -7.765625 7.757812 -7.535156 7.90625 -7.296875 C 8.050781 -7.066406 8.125 -6.84375 8.125 -6.625 C 8.125 -6.457031 8.097656 -6.191406 8.046875 -5.828125 C 7.992188 -5.472656 7.925781 -5.050781 7.84375 -4.5625 C 7.769531 -4.082031 7.679688 -3.582031 7.578125 -3.0625 C 7.472656 -2.539062 7.367188 -2.039062 7.265625 -1.5625 C 7.160156 -1.082031 7.0625 -0.664062 6.96875 -0.3125 C 6.945312 -0.226562 6.898438 -0.15625 6.828125 -0.09375 C 6.753906 -0.0390625 6.671875 -0.015625 6.578125 -0.015625 C 6.441406 -0.015625 6.222656 -0.0546875 5.921875 -0.140625 C 5.617188 -0.234375 5.328125 -0.335938 5.046875 -0.453125 C 4.765625 -0.578125 4.566406 -0.675781 4.453125 -0.75 C 4.304688 -0.851562 4.234375 -0.976562 4.234375 -1.125 C 4.234375 -1.15625 4.234375 -1.179688 4.234375 -1.203125 C 4.242188 -1.234375 4.25 -1.25 4.25 -1.25 C 4.3125 -1.488281 4.382812 -1.800781 4.46875 -2.1875 C 4.550781 -2.582031 4.632812 -2.992188 4.71875 -3.421875 C 4.8125 -3.859375 4.882812 -4.269531 4.9375 -4.65625 C 5 -5.050781 5.03125 -5.375 5.03125 -5.625 C 5.03125 -5.894531 4.988281 -6.03125 4.90625 -6.03125 C 4.820312 -6.03125 4.671875 -5.96875 4.453125 -5.84375 C 4.242188 -5.71875 4.050781 -5.566406 3.875 -5.390625 C 3.800781 -5.304688 3.742188 -5.21875 3.703125 -5.125 C 3.660156 -5.03125 3.628906 -4.9375 3.609375 -4.84375 C 3.503906 -4.320312 3.394531 -3.769531 3.28125 -3.1875 C 3.175781 -2.613281 3.070312 -2.070312 2.96875 -1.5625 C 2.863281 -1.050781 2.78125 -0.632812 2.71875 -0.3125 C 2.65625 -0.125 2.539062 -0.03125 2.375 -0.03125 C 2.226562 -0.03125 2.003906 -0.0664062 1.703125 -0.140625 C 1.410156 -0.222656 1.125 -0.316406 0.84375 -0.421875 C 0.5625 -0.523438 0.367188 -0.601562 0.265625 -0.65625 C 0.191406 -0.707031 0.132812 -0.769531 0.09375 -0.84375 C 0.0625 -0.925781 0.046875 -1.003906 0.046875 -1.078125 C 0.046875 -1.109375 0.046875 -1.140625 0.046875 -1.171875 C 0.0546875 -1.203125 0.0625 -1.21875 0.0625 -1.21875 C 0.125 -1.5 0.191406 -1.878906 0.265625 -2.359375 C 0.347656 -2.835938 0.4375 -3.367188 0.53125 -3.953125 C 0.625 -4.535156 0.710938 -5.117188 0.796875 -5.703125 C 0.890625 -6.285156 0.972656 -6.820312 1.046875 -7.3125 C 1.117188 -7.800781 1.175781 -8.195312 1.21875 -8.5 C 1.238281 -8.582031 1.285156 -8.648438 1.359375 -8.703125 C 1.429688 -8.753906 1.507812 -8.78125 1.59375 -8.78125 C 1.707031 -8.78125 1.898438 -8.753906 2.171875 -8.703125 C 2.453125 -8.660156 2.726562 -8.613281 3 -8.5625 C 3.28125 -8.507812 3.476562 -8.457031 3.59375 -8.40625 C 3.78125 -8.34375 3.882812 -8.1875 3.90625 -7.9375 L 3.9375 -7.375 C 3.9375 -7.269531 3.957031 -7.21875 4 -7.21875 C 4.019531 -7.21875 4.046875 -7.234375 4.078125 -7.265625 C 4.109375 -7.296875 4.125 -7.3125 4.125 -7.3125 Z M 4.125 -7.3125 "/></g></g></g></g></g></g><g clip-path="url(#bb926f85f4)"><g transform="matrix(1, 0, 0, 1, 28, 15)"><g clip-path="url(#7a21347239)"><g fill="#0ba14b" fill-opacity="1"><g transform="translate(1.087139, 16.25874)"><g><path d="M 9.015625 -10.703125 C 9.128906 -10.648438 9.210938 -10.582031 9.265625 -10.5 C 9.328125 -10.425781 9.359375 -10.351562 9.359375 -10.28125 L 9.359375 -10 C 9.359375 -9.539062 9.320312 -8.976562 9.25 -8.3125 C 9.1875 -7.644531 9.078125 -6.929688 8.921875 -6.171875 C 8.773438 -5.421875 8.582031 -4.679688 8.34375 -3.953125 C 8.101562 -3.222656 7.816406 -2.554688 7.484375 -1.953125 C 7.148438 -1.359375 6.757812 -0.882812 6.3125 -0.53125 C 5.875 -0.175781 5.375 0 4.8125 0 C 4.476562 0 4.070312 -0.0625 3.59375 -0.1875 C 3.113281 -0.3125 2.65625 -0.488281 2.21875 -0.71875 C 1.78125 -0.957031 1.4375 -1.242188 1.1875 -1.578125 C 0.976562 -1.859375 0.828125 -2.195312 0.734375 -2.59375 C 0.648438 -3 0.609375 -3.410156 0.609375 -3.828125 C 0.609375 -4.546875 0.664062 -5.269531 0.78125 -6 C 0.894531 -6.738281 1.03125 -7.441406 1.1875 -8.109375 C 1.351562 -8.773438 1.523438 -9.363281 1.703125 -9.875 C 1.890625 -10.382812 2.050781 -10.769531 2.1875 -11.03125 C 2.3125 -11.238281 2.46875 -11.34375 2.65625 -11.34375 C 2.769531 -11.34375 2.953125 -11.3125 3.203125 -11.25 C 3.460938 -11.1875 3.734375 -11.113281 4.015625 -11.03125 C 4.296875 -10.957031 4.523438 -10.878906 4.703125 -10.796875 C 4.847656 -10.742188 4.921875 -10.644531 4.921875 -10.5 C 4.921875 -10.488281 4.910156 -10.460938 4.890625 -10.421875 C 4.878906 -10.378906 4.875 -10.359375 4.875 -10.359375 C 4.71875 -9.890625 4.554688 -9.34375 4.390625 -8.71875 C 4.222656 -8.101562 4.066406 -7.472656 3.921875 -6.828125 C 3.785156 -6.191406 3.671875 -5.597656 3.578125 -5.046875 C 3.492188 -4.503906 3.453125 -4.070312 3.453125 -3.75 C 3.453125 -3.394531 3.515625 -3.109375 3.640625 -2.890625 C 3.765625 -2.671875 3.9375 -2.5625 4.15625 -2.5625 C 4.476562 -2.5625 4.75 -2.785156 4.96875 -3.234375 C 5.1875 -3.679688 5.382812 -4.242188 5.5625 -4.921875 C 5.707031 -5.453125 5.84375 -6.015625 5.96875 -6.609375 C 6.09375 -7.203125 6.203125 -7.785156 6.296875 -8.359375 C 6.390625 -8.929688 6.46875 -9.445312 6.53125 -9.90625 C 6.601562 -10.363281 6.660156 -10.710938 6.703125 -10.953125 C 6.734375 -11.128906 6.832031 -11.21875 7 -11.21875 C 7.070312 -11.21875 7.195312 -11.195312 7.375 -11.15625 C 7.5625 -11.113281 7.765625 -11.0625 7.984375 -11 C 8.210938 -10.945312 8.421875 -10.890625 8.609375 -10.828125 C 8.804688 -10.773438 8.941406 -10.734375 9.015625 -10.703125 Z M 9.015625 -10.703125 "/></g></g></g><g fill="#0ba14b" fill-opacity="1"><g transform="translate(10.018187, 16.25874)"><g><path d="M 4.125 -7.3125 C 4.40625 -7.726562 4.703125 -8.066406 5.015625 -8.328125 C 5.335938 -8.585938 5.648438 -8.71875 5.953125 -8.71875 C 6.148438 -8.71875 6.375 -8.648438 6.625 -8.515625 C 6.875 -8.378906 7.113281 -8.203125 7.34375 -7.984375 C 7.570312 -7.765625 7.757812 -7.535156 7.90625 -7.296875 C 8.050781 -7.066406 8.125 -6.84375 8.125 -6.625 C 8.125 -6.457031 8.097656 -6.191406 8.046875 -5.828125 C 7.992188 -5.472656 7.925781 -5.050781 7.84375 -4.5625 C 7.769531 -4.082031 7.679688 -3.582031 7.578125 -3.0625 C 7.472656 -2.539062 7.367188 -2.039062 7.265625 -1.5625 C 7.160156 -1.082031 7.0625 -0.664062 6.96875 -0.3125 C 6.945312 -0.226562 6.898438 -0.15625 6.828125 -0.09375 C 6.753906 -0.0390625 6.671875 -0.015625 6.578125 -0.015625 C 6.441406 -0.015625 6.222656 -0.0546875 5.921875 -0.140625 C 5.617188 -0.234375 5.328125 -0.335938 5.046875 -0.453125 C 4.765625 -0.578125 4.566406 -0.675781 4.453125 -0.75 C 4.304688 -0.851562 4.234375 -0.976562 4.234375 -1.125 C 4.234375 -1.15625 4.234375 -1.179688 4.234375 -1.203125 C 4.242188 -1.234375 4.25 -1.25 4.25 -1.25 C 4.3125 -1.488281 4.382812 -1.800781 4.46875 -2.1875 C 4.550781 -2.582031 4.632812 -2.992188 4.71875 -3.421875 C 4.8125 -3.859375 4.882812 -4.269531 4.9375 -4.65625 C 5 -5.050781 5.03125 -5.375 5.03125 -5.625 C 5.03125 -5.894531 4.988281 -6.03125 4.90625 -6.03125 C 4.820312 -6.03125 4.671875 -5.96875 4.453125 -5.84375 C 4.242188 -5.71875 4.050781 -5.566406 3.875 -5.390625 C 3.800781 -5.304688 3.742188 -5.21875 3.703125 -5.125 C 3.660156 -5.03125 3.628906 -4.9375 3.609375 -4.84375 C 3.503906 -4.320312 3.394531 -3.769531 3.28125 -3.1875 C 3.175781 -2.613281 3.070312 -2.070312 2.96875 -1.5625 C 2.863281 -1.050781 2.78125 -0.632812 2.71875 -0.3125 C 2.65625 -0.125 2.539062 -0.03125 2.375 -0.03125 C 2.226562 -0.03125 2.003906 -0.0664062 1.703125 -0.140625 C 1.410156 -0.222656 1.125 -0.316406 0.84375 -0.421875 C 0.5625 -0.523438 0.367188 -0.601562 0.265625 -0.65625 C 0.191406 -0.707031 0.132812 -0.769531 0.09375 -0.84375 C 0.0625 -0.925781 0.046875 -1.003906 0.046875 -1.078125 C 0.046875 -1.109375 0.046875 -1.140625 0.046875 -1.171875 C 0.0546875 -1.203125 0.0625 -1.21875 0.0625 -1.21875 C 0.125 -1.5 0.191406 -1.878906 0.265625 -2.359375 C 0.347656 -2.835938 0.4375 -3.367188 0.53125 -3.953125 C 0.625 -4.535156 0.710938 -5.117188 0.796875 -5.703125 C 0.890625 -6.285156 0.972656 -6.820312 1.046875 -7.3125 C 1.117188 -7.800781 1.175781 -8.195312 1.21875 -8.5 C 1.238281 -8.582031 1.285156 -8.648438 1.359375 -8.703125 C 1.429688 -8.753906 1.507812 -8.78125 1.59375 -8.78125 C 1.707031 -8.78125 1.898438 -8.753906 2.171875 -8.703125 C 2.453125 -8.660156 2.726562 -8.613281 3 -8.5625 C 3.28125 -8.507812 3.476562 -8.457031 3.59375 -8.40625 C 3.78125 -8.34375 3.882812 -8.1875 3.90625 -7.9375 L 3.9375 -7.375 C 3.9375 -7.269531 3.957031 -7.21875 4 -7.21875 C 4.019531 -7.21875 4.046875 -7.234375 4.078125 -7.265625 C 4.109375 -7.296875 4.125 -7.3125 4.125 -7.3125 Z M 4.125 -7.3125 "/></g></g></g><g fill="#0ba14b" fill-opacity="1"><g transform="translate(18.18662, 16.25874)"><g><path d="M 0.25 -3.234375 C 0.25 -3.640625 0.296875 -4.085938 0.390625 -4.578125 C 0.484375 -5.078125 0.617188 -5.566406 0.796875 -6.046875 C 0.984375 -6.535156 1.226562 -6.984375 1.53125 -7.390625 C 1.832031 -7.796875 2.1875 -8.125 2.59375 -8.375 C 3.007812 -8.625 3.488281 -8.75 4.03125 -8.75 C 4.25 -8.75 4.53125 -8.703125 4.875 -8.609375 C 5.21875 -8.523438 5.585938 -8.40625 5.984375 -8.25 C 6.378906 -8.101562 6.753906 -7.945312 7.109375 -7.78125 C 7.472656 -7.613281 7.773438 -7.453125 8.015625 -7.296875 C 8.128906 -7.210938 8.1875 -7.082031 8.1875 -6.90625 C 8.1875 -6.863281 8.179688 -6.828125 8.171875 -6.796875 C 8.171875 -6.773438 8.171875 -6.765625 8.171875 -6.765625 C 8.085938 -6.421875 7.992188 -6.003906 7.890625 -5.515625 C 7.796875 -5.023438 7.695312 -4.488281 7.59375 -3.90625 C 7.488281 -3.320312 7.382812 -2.726562 7.28125 -2.125 C 7.175781 -1.53125 7.070312 -0.960938 6.96875 -0.421875 C 6.925781 -0.160156 6.828125 0.164062 6.671875 0.5625 C 6.515625 0.957031 6.296875 1.347656 6.015625 1.734375 C 5.734375 2.117188 5.367188 2.4375 4.921875 2.6875 C 4.484375 2.945312 3.953125 3.078125 3.328125 3.078125 C 3.097656 3.078125 2.832031 3.035156 2.53125 2.953125 C 2.226562 2.878906 1.941406 2.78125 1.671875 2.65625 C 1.410156 2.539062 1.195312 2.429688 1.03125 2.328125 C 0.957031 2.265625 0.90625 2.195312 0.875 2.125 C 0.84375 2.0625 0.828125 2 0.828125 1.9375 C 0.828125 1.914062 0.828125 1.890625 0.828125 1.859375 C 0.835938 1.828125 0.84375 1.8125 0.84375 1.8125 C 0.894531 1.632812 0.953125 1.425781 1.015625 1.1875 C 1.078125 0.945312 1.140625 0.726562 1.203125 0.53125 C 1.253906 0.394531 1.335938 0.328125 1.453125 0.328125 C 1.472656 0.328125 1.492188 0.328125 1.515625 0.328125 C 1.546875 0.335938 1.5625 0.34375 1.5625 0.34375 C 1.832031 0.457031 2.0625 0.535156 2.25 0.578125 C 2.445312 0.617188 2.625 0.640625 2.78125 0.640625 C 3.164062 0.628906 3.476562 0.523438 3.71875 0.328125 C 3.957031 0.140625 4.132812 -0.09375 4.25 -0.375 C 4.375 -0.664062 4.4375 -0.941406 4.4375 -1.203125 C 4.4375 -1.304688 4.421875 -1.359375 4.390625 -1.359375 C 4.367188 -1.359375 4.328125 -1.320312 4.265625 -1.25 C 4.054688 -0.945312 3.828125 -0.691406 3.578125 -0.484375 C 3.328125 -0.285156 3.082031 -0.1875 2.84375 -0.1875 C 2.445312 -0.1875 2.046875 -0.328125 1.640625 -0.609375 C 1.242188 -0.890625 0.910156 -1.257812 0.640625 -1.71875 C 0.378906 -2.1875 0.25 -2.691406 0.25 -3.234375 Z M 4.359375 -3.265625 C 4.460938 -3.367188 4.523438 -3.484375 4.546875 -3.609375 C 4.597656 -4.003906 4.671875 -4.398438 4.765625 -4.796875 C 4.859375 -5.191406 4.941406 -5.582031 5.015625 -5.96875 L 5.015625 -6.046875 C 5.015625 -6.171875 4.972656 -6.257812 4.890625 -6.3125 C 4.816406 -6.375 4.722656 -6.40625 4.609375 -6.40625 C 4.367188 -6.40625 4.160156 -6.296875 3.984375 -6.078125 C 3.804688 -5.859375 3.648438 -5.582031 3.515625 -5.25 C 3.390625 -4.925781 3.296875 -4.59375 3.234375 -4.25 C 3.171875 -3.914062 3.140625 -3.628906 3.140625 -3.390625 C 3.140625 -2.910156 3.21875 -2.671875 3.375 -2.671875 C 3.5 -2.671875 3.65625 -2.734375 3.84375 -2.859375 C 4.03125 -2.984375 4.203125 -3.117188 4.359375 -3.265625 Z M 4.359375 -3.265625 "/></g></g></g><g fill="#0ba14b" fill-opacity="1"><g transform="translate(26.270318, 16.25874)"><g><path d="M 0.25 -3.234375 C 0.25 -3.640625 0.296875 -4.085938 0.390625 -4.578125 C 0.484375 -5.078125 0.617188 -5.566406 0.796875 -6.046875 C 0.984375 -6.535156 1.226562 -6.984375 1.53125 -7.390625 C 1.832031 -7.796875 2.1875 -8.125 2.59375 -8.375 C 3.007812 -8.625 3.488281 -8.75 4.03125 -8.75 C 4.25 -8.75 4.53125 -8.703125 4.875 -8.609375 C 5.21875 -8.523438 5.585938 -8.40625 5.984375 -8.25 C 6.378906 -8.101562 6.753906 -7.945312 7.109375 -7.78125 C 7.472656 -7.613281 7.773438 -7.453125 8.015625 -7.296875 C 8.128906 -7.210938 8.1875 -7.082031 8.1875 -6.90625 C 8.1875 -6.863281 8.179688 -6.828125 8.171875 -6.796875 C 8.171875 -6.773438 8.171875 -6.765625 8.171875 -6.765625 C 8.085938 -6.421875 7.992188 -6.003906 7.890625 -5.515625 C 7.796875 -5.023438 7.695312 -4.488281 7.59375 -3.90625 C 7.488281 -3.320312 7.382812 -2.726562 7.28125 -2.125 C 7.175781 -1.53125 7.070312 -0.960938 6.96875 -0.421875 C 6.925781 -0.160156 6.828125 0.164062 6.671875 0.5625 C 6.515625 0.957031 6.296875 1.347656 6.015625 1.734375 C 5.734375 2.117188 5.367188 2.4375 4.921875 2.6875 C 4.484375 2.945312 3.953125 3.078125 3.328125 3.078125 C 3.097656 3.078125 2.832031 3.035156 2.53125 2.953125 C 2.226562 2.878906 1.941406 2.78125 1.671875 2.65625 C 1.410156 2.539062 1.195312 2.429688 1.03125 2.328125 C 0.957031 2.265625 0.90625 2.195312 0.875 2.125 C 0.84375 2.0625 0.828125 2 0.828125 1.9375 C 0.828125 1.914062 0.828125 1.890625 0.828125 1.859375 C 0.835938 1.828125 0.84375 1.8125 0.84375 1.8125 C 0.894531 1.632812 0.953125 1.425781 1.015625 1.1875 C 1.078125 0.945312 1.140625 0.726562 1.203125 0.53125 C 1.253906 0.394531 1.335938 0.328125 1.453125 0.328125 C 1.472656 0.328125 1.492188 0.328125 1.515625 0.328125 C 1.546875 0.335938 1.5625 0.34375 1.5625 0.34375 C 1.832031 0.457031 2.0625 0.535156 2.25 0.578125 C 2.445312 0.617188 2.625 0.640625 2.78125 0.640625 C 3.164062 0.628906 3.476562 0.523438 3.71875 0.328125 C 3.957031 0.140625 4.132812 -0.09375 4.25 -0.375 C 4.375 -0.664062 4.4375 -0.941406 4.4375 -1.203125 C 4.4375 -1.304688 4.421875 -1.359375 4.390625 -1.359375 C 4.367188 -1.359375 4.328125 -1.320312 4.265625 -1.25 C 4.054688 -0.945312 3.828125 -0.691406 3.578125 -0.484375 C 3.328125 -0.285156 3.082031 -0.1875 2.84375 -0.1875 C 2.445312 -0.1875 2.046875 -0.328125 1.640625 -0.609375 C 1.242188 -0.890625 0.910156 -1.257812 0.640625 -1.71875 C 0.378906 -2.1875 0.25 -2.691406 0.25 -3.234375 Z M 4.359375 -3.265625 C 4.460938 -3.367188 4.523438 -3.484375 4.546875 -3.609375 C 4.597656 -4.003906 4.671875 -4.398438 4.765625 -4.796875 C 4.859375 -5.191406 4.941406 -5.582031 5.015625 -5.96875 L 5.015625 -6.046875 C 5.015625 -6.171875 4.972656 -6.257812 4.890625 -6.3125 C 4.816406 -6.375 4.722656 -6.40625 4.609375 -6.40625 C 4.367188 -6.40625 4.160156 -6.296875 3.984375 -6.078125 C 3.804688 -5.859375 3.648438 -5.582031 3.515625 -5.25 C 3.390625 -4.925781 3.296875 -4.59375 3.234375 -4.25 C 3.171875 -3.914062 3.140625 -3.628906 3.140625 -3.390625 C 3.140625 -2.910156 3.21875 -2.671875 3.375 -2.671875 C 3.5 -2.671875 3.65625 -2.734375 3.84375 -2.859375 C 4.03125 -2.984375 4.203125 -3.117188 4.359375 -3.265625 Z M 4.359375 -3.265625 "/></g></g></g><g fill="#0ba14b" fill-opacity="1"><g transform="translate(34.354016, 16.25874)"><g><path d="M 8.15625 -8.03125 C 8.21875 -8.007812 8.265625 -7.960938 8.296875 -7.890625 C 8.335938 -7.816406 8.359375 -7.75 8.359375 -7.6875 C 8.359375 -7.65625 8.351562 -7.628906 8.34375 -7.609375 C 8.34375 -7.585938 8.34375 -7.578125 8.34375 -7.578125 C 8.144531 -6.921875 7.972656 -6.242188 7.828125 -5.546875 C 7.691406 -4.859375 7.570312 -4.179688 7.46875 -3.515625 C 7.375 -2.859375 7.300781 -2.253906 7.25 -1.703125 C 7.195312 -1.148438 7.164062 -0.691406 7.15625 -0.328125 C 7.15625 -0.242188 7.125 -0.171875 7.0625 -0.109375 C 7.007812 -0.046875 6.9375 -0.015625 6.84375 -0.015625 C 6.726562 -0.015625 6.5625 -0.0351562 6.34375 -0.078125 C 6.132812 -0.128906 5.921875 -0.1875 5.703125 -0.25 C 5.492188 -0.3125 5.332031 -0.359375 5.21875 -0.390625 C 5.132812 -0.421875 5.050781 -0.472656 4.96875 -0.546875 C 4.894531 -0.628906 4.847656 -0.738281 4.828125 -0.875 L 4.75 -1.546875 C 4.738281 -1.648438 4.707031 -1.703125 4.65625 -1.703125 C 4.625 -1.703125 4.59375 -1.664062 4.5625 -1.59375 C 4.300781 -1.101562 4.007812 -0.710938 3.6875 -0.421875 C 3.363281 -0.128906 3.046875 0.015625 2.734375 0.015625 C 2.484375 0.015625 2.21875 -0.0546875 1.9375 -0.203125 C 1.65625 -0.359375 1.390625 -0.5625 1.140625 -0.8125 C 0.890625 -1.070312 0.679688 -1.359375 0.515625 -1.671875 C 0.359375 -1.984375 0.28125 -2.296875 0.28125 -2.609375 C 0.28125 -3.316406 0.34375 -4.046875 0.46875 -4.796875 C 0.601562 -5.546875 0.757812 -6.234375 0.9375 -6.859375 C 1.125 -7.484375 1.285156 -7.972656 1.421875 -8.328125 C 1.484375 -8.503906 1.601562 -8.59375 1.78125 -8.59375 C 1.863281 -8.59375 2 -8.5625 2.1875 -8.5 C 2.382812 -8.4375 2.601562 -8.363281 2.84375 -8.28125 C 3.082031 -8.195312 3.300781 -8.113281 3.5 -8.03125 C 3.695312 -7.945312 3.832031 -7.878906 3.90625 -7.828125 C 4 -7.765625 4.046875 -7.660156 4.046875 -7.515625 C 4.046875 -7.472656 4.039062 -7.4375 4.03125 -7.40625 C 4.03125 -7.375 4.03125 -7.359375 4.03125 -7.359375 C 3.957031 -7.117188 3.867188 -6.804688 3.765625 -6.421875 C 3.660156 -6.046875 3.5625 -5.644531 3.46875 -5.21875 C 3.375 -4.800781 3.296875 -4.40625 3.234375 -4.03125 C 3.171875 -3.65625 3.140625 -3.359375 3.140625 -3.140625 C 3.140625 -2.910156 3.175781 -2.796875 3.25 -2.796875 C 3.382812 -2.796875 3.550781 -2.867188 3.75 -3.015625 C 3.945312 -3.160156 4.132812 -3.335938 4.3125 -3.546875 C 4.488281 -3.765625 4.597656 -3.976562 4.640625 -4.1875 C 4.710938 -4.675781 4.804688 -5.1875 4.921875 -5.71875 C 5.035156 -6.25 5.148438 -6.75 5.265625 -7.21875 C 5.390625 -7.6875 5.503906 -8.066406 5.609375 -8.359375 C 5.628906 -8.441406 5.675781 -8.507812 5.75 -8.5625 C 5.820312 -8.613281 5.90625 -8.640625 6 -8.640625 C 6.082031 -8.640625 6.257812 -8.601562 6.53125 -8.53125 C 6.8125 -8.46875 7.109375 -8.390625 7.421875 -8.296875 C 7.742188 -8.210938 7.988281 -8.125 8.15625 -8.03125 Z M 8.15625 -8.03125 "/></g></g></g><g fill="#0ba14b" fill-opacity="1"><g transform="translate(42.5055, 16.25874)"><g><path d="M 2.765625 -0.328125 C 2.742188 -0.140625 2.640625 -0.046875 2.453125 -0.046875 C 2.378906 -0.046875 2.242188 -0.0664062 2.046875 -0.109375 C 1.859375 -0.160156 1.648438 -0.21875 1.421875 -0.28125 C 1.191406 -0.351562 0.984375 -0.414062 0.796875 -0.46875 C 0.617188 -0.53125 0.492188 -0.578125 0.421875 -0.609375 C 0.304688 -0.648438 0.234375 -0.71875 0.203125 -0.8125 C 0.171875 -0.90625 0.15625 -0.992188 0.15625 -1.078125 C 0.15625 -1.441406 0.1875 -1.910156 0.25 -2.484375 C 0.320312 -3.066406 0.410156 -3.703125 0.515625 -4.390625 C 0.628906 -5.085938 0.757812 -5.800781 0.90625 -6.53125 C 1.0625 -7.257812 1.210938 -7.957031 1.359375 -8.625 C 1.515625 -9.289062 1.664062 -9.882812 1.8125 -10.40625 C 1.957031 -10.9375 2.085938 -11.335938 2.203125 -11.609375 C 2.253906 -11.785156 2.375 -11.875 2.5625 -11.875 C 2.625 -11.875 2.765625 -11.84375 2.984375 -11.78125 C 3.203125 -11.726562 3.429688 -11.664062 3.671875 -11.59375 C 3.921875 -11.519531 4.148438 -11.445312 4.359375 -11.375 C 4.566406 -11.3125 4.703125 -11.265625 4.765625 -11.234375 C 4.910156 -11.179688 4.984375 -11.078125 4.984375 -10.921875 C 4.984375 -10.898438 4.976562 -10.875 4.96875 -10.84375 C 4.96875 -10.820312 4.96875 -10.8125 4.96875 -10.8125 C 4.832031 -10.40625 4.664062 -9.828125 4.46875 -9.078125 C 4.269531 -8.328125 4.066406 -7.46875 3.859375 -6.5 C 3.648438 -5.539062 3.445312 -4.53125 3.25 -3.46875 C 3.0625 -2.40625 2.898438 -1.359375 2.765625 -0.328125 Z M 2.765625 -0.328125 "/></g></g></g><g fill="#0ba14b" fill-opacity="1"><g transform="translate(46.420247, 16.25874)"><g><path d="M 5.21875 -0.421875 C 5.070312 -0.460938 4.972656 -0.53125 4.921875 -0.625 C 4.867188 -0.71875 4.832031 -0.800781 4.8125 -0.875 L 4.765625 -1.4375 C 4.765625 -1.53125 4.742188 -1.578125 4.703125 -1.578125 C 4.660156 -1.578125 4.625 -1.539062 4.59375 -1.46875 C 4.320312 -1.007812 4.039062 -0.648438 3.75 -0.390625 C 3.46875 -0.128906 3.191406 0 2.921875 0 C 2.617188 0 2.3125 -0.078125 2 -0.234375 C 1.695312 -0.398438 1.410156 -0.625 1.140625 -0.90625 C 0.878906 -1.195312 0.664062 -1.523438 0.5 -1.890625 C 0.332031 -2.265625 0.25 -2.65625 0.25 -3.0625 C 0.25 -3.46875 0.289062 -3.921875 0.375 -4.421875 C 0.46875 -4.929688 0.601562 -5.4375 0.78125 -5.9375 C 0.957031 -6.445312 1.191406 -6.910156 1.484375 -7.328125 C 1.785156 -7.753906 2.144531 -8.097656 2.5625 -8.359375 C 2.976562 -8.617188 3.460938 -8.75 4.015625 -8.75 C 4.316406 -8.75 4.707031 -8.675781 5.1875 -8.53125 C 5.675781 -8.382812 6.171875 -8.195312 6.671875 -7.96875 C 7.179688 -7.738281 7.628906 -7.492188 8.015625 -7.234375 C 8.148438 -7.148438 8.21875 -7.035156 8.21875 -6.890625 C 8.21875 -6.867188 8.210938 -6.835938 8.203125 -6.796875 C 8.203125 -6.765625 8.203125 -6.75 8.203125 -6.75 C 7.972656 -5.914062 7.789062 -5.09375 7.65625 -4.28125 C 7.519531 -3.46875 7.421875 -2.71875 7.359375 -2.03125 C 7.296875 -1.351562 7.257812 -0.785156 7.25 -0.328125 C 7.238281 -0.242188 7.207031 -0.171875 7.15625 -0.109375 C 7.113281 -0.0546875 7.050781 -0.03125 6.96875 -0.03125 C 6.882812 -0.03125 6.726562 -0.0546875 6.5 -0.109375 C 6.28125 -0.160156 6.046875 -0.21875 5.796875 -0.28125 C 5.554688 -0.34375 5.363281 -0.390625 5.21875 -0.421875 Z M 4.375 -3.265625 C 4.476562 -3.367188 4.539062 -3.484375 4.5625 -3.609375 C 4.613281 -4.003906 4.6875 -4.398438 4.78125 -4.796875 C 4.875 -5.191406 4.957031 -5.582031 5.03125 -5.96875 L 5.03125 -6.046875 C 5.03125 -6.171875 4.988281 -6.257812 4.90625 -6.3125 C 4.832031 -6.375 4.738281 -6.40625 4.625 -6.40625 C 4.382812 -6.40625 4.175781 -6.296875 4 -6.078125 C 3.820312 -5.859375 3.664062 -5.582031 3.53125 -5.25 C 3.40625 -4.925781 3.3125 -4.59375 3.25 -4.25 C 3.1875 -3.914062 3.15625 -3.628906 3.15625 -3.390625 C 3.15625 -2.910156 3.234375 -2.671875 3.390625 -2.671875 C 3.515625 -2.671875 3.671875 -2.734375 3.859375 -2.859375 C 4.046875 -2.984375 4.21875 -3.117188 4.375 -3.265625 Z M 4.375 -3.265625 "/></g></g></g><g fill="#0ba14b" fill-opacity="1"><g transform="translate(54.571731, 16.25874)"><g><path d="M 4.125 -7.3125 C 4.40625 -7.726562 4.703125 -8.066406 5.015625 -8.328125 C 5.335938 -8.585938 5.648438 -8.71875 5.953125 -8.71875 C 6.148438 -8.71875 6.375 -8.648438 6.625 -8.515625 C 6.875 -8.378906 7.113281 -8.203125 7.34375 -7.984375 C 7.570312 -7.765625 7.757812 -7.535156 7.90625 -7.296875 C 8.050781 -7.066406 8.125 -6.84375 8.125 -6.625 C 8.125 -6.457031 8.097656 -6.191406 8.046875 -5.828125 C 7.992188 -5.472656 7.925781 -5.050781 7.84375 -4.5625 C 7.769531 -4.082031 7.679688 -3.582031 7.578125 -3.0625 C 7.472656 -2.539062 7.367188 -2.039062 7.265625 -1.5625 C 7.160156 -1.082031 7.0625 -0.664062 6.96875 -0.3125 C 6.945312 -0.226562 6.898438 -0.15625 6.828125 -0.09375 C 6.753906 -0.0390625 6.671875 -0.015625 6.578125 -0.015625 C 6.441406 -0.015625 6.222656 -0.0546875 5.921875 -0.140625 C 5.617188 -0.234375 5.328125 -0.335938 5.046875 -0.453125 C 4.765625 -0.578125 4.566406 -0.675781 4.453125 -0.75 C 4.304688 -0.851562 4.234375 -0.976562 4.234375 -1.125 C 4.234375 -1.15625 4.234375 -1.179688 4.234375 -1.203125 C 4.242188 -1.234375 4.25 -1.25 4.25 -1.25 C 4.3125 -1.488281 4.382812 -1.800781 4.46875 -2.1875 C 4.550781 -2.582031 4.632812 -2.992188 4.71875 -3.421875 C 4.8125 -3.859375 4.882812 -4.269531 4.9375 -4.65625 C 5 -5.050781 5.03125 -5.375 5.03125 -5.625 C 5.03125 -5.894531 4.988281 -6.03125 4.90625 -6.03125 C 4.820312 -6.03125 4.671875 -5.96875 4.453125 -5.84375 C 4.242188 -5.71875 4.050781 -5.566406 3.875 -5.390625 C 3.800781 -5.304688 3.742188 -5.21875 3.703125 -5.125 C 3.660156 -5.03125 3.628906 -4.9375 3.609375 -4.84375 C 3.503906 -4.320312 3.394531 -3.769531 3.28125 -3.1875 C 3.175781 -2.613281 3.070312 -2.070312 2.96875 -1.5625 C 2.863281 -1.050781 2.78125 -0.632812 2.71875 -0.3125 C 2.65625 -0.125 2.539062 -0.03125 2.375 -0.03125 C 2.226562 -0.03125 2.003906 -0.0664062 1.703125 -0.140625 C 1.410156 -0.222656 1.125 -0.316406 0.84375 -0.421875 C 0.5625 -0.523438 0.367188 -0.601562 0.265625 -0.65625 C 0.191406 -0.707031 0.132812 -0.769531 0.09375 -0.84375 C 0.0625 -0.925781 0.046875 -1.003906 0.046875 -1.078125 C 0.046875 -1.109375 0.046875 -1.140625 0.046875 -1.171875 C 0.0546875 -1.203125 0.0625 -1.21875 0.0625 -1.21875 C 0.125 -1.5 0.191406 -1.878906 0.265625 -2.359375 C 0.347656 -2.835938 0.4375 -3.367188 0.53125 -3.953125 C 0.625 -4.535156 0.710938 -5.117188 0.796875 -5.703125 C 0.890625 -6.285156 0.972656 -6.820312 1.046875 -7.3125 C 1.117188 -7.800781 1.175781 -8.195312 1.21875 -8.5 C 1.238281 -8.582031 1.285156 -8.648438 1.359375 -8.703125 C 1.429688 -8.753906 1.507812 -8.78125 1.59375 -8.78125 C 1.707031 -8.78125 1.898438 -8.753906 2.171875 -8.703125 C 2.453125 -8.660156 2.726562 -8.613281 3 -8.5625 C 3.28125 -8.507812 3.476562 -8.457031 3.59375 -8.40625 C 3.78125 -8.34375 3.882812 -8.1875 3.90625 -7.9375 L 3.9375 -7.375 C 3.9375 -7.269531 3.957031 -7.21875 4 -7.21875 C 4.019531 -7.21875 4.046875 -7.234375 4.078125 -7.265625 C 4.109375 -7.296875 4.125 -7.3125 4.125 -7.3125 Z M 4.125 -7.3125 "/></g></g></g></g></g></g></g></g></svg>