<svg xmlns="http://www.w3.org/2000/svg" xmlns:xlink="http://www.w3.org/1999/xlink" width="250" zoomAndPan="magnify" viewBox="0 0 187.5 60" height="80" preserveAspectRatio="xMidYMid meet" version="1.0"><defs><g/><clipPath id="25b39af984"><path d="M 37 0.078125 L 150 0.078125 L 150 59.917969 L 37 59.917969 Z M 37 0.078125 " clip-rule="nonzero"/></clipPath><clipPath id="53996f7279"><path d="M 2 2 L 112.839844 2 L 112.839844 59.609375 L 2 59.609375 Z M 2 2 " clip-rule="nonzero"/></clipPath><clipPath id="1842a04b21"><path d="M 0.179688 0.078125 L 111 0.078125 L 111 58 L 0.179688 58 Z M 0.179688 0.078125 " clip-rule="nonzero"/></clipPath><clipPath id="3d74316310"><path d="M 0.0273438 4 L 10 4 L 10 16 L 0.0273438 16 Z M 0.0273438 4 " clip-rule="nonzero"/></clipPath><clipPath id="2dc6a4c031"><rect x="0" width="55" y="0" height="20"/></clipPath><clipPath id="34bc4f7984"><rect x="0" width="60" y="0" height="21"/></clipPath><clipPath id="1486d52a6a"><rect x="0" width="113" y="0" height="60"/></clipPath></defs><g clip-path="url(#25b39af984)"><g transform="matrix(1, 0, 0, 1, 37, -0.00000000000000501)"><g clip-path="url(#1486d52a6a)"><g clip-path="url(#53996f7279)"><path fill="#ffde00" d="M 105.023438 59.917969 L 10.191406 59.917969 C 9.679688 59.917969 9.175781 59.871094 8.671875 59.769531 C 8.171875 59.667969 7.683594 59.523438 7.210938 59.324219 C 6.738281 59.128906 6.289062 58.890625 5.863281 58.605469 C 5.4375 58.320312 5.042969 58 4.679688 57.636719 C 4.320312 57.273438 3.996094 56.878906 3.710938 56.457031 C 3.425781 56.03125 3.1875 55.582031 2.992188 55.109375 C 2.796875 54.632812 2.648438 54.148438 2.546875 53.644531 C 2.449219 53.144531 2.398438 52.636719 2.398438 52.125 L 2.398438 10.09375 C 2.398438 9.582031 2.449219 9.074219 2.546875 8.570312 C 2.648438 8.070312 2.796875 7.582031 2.992188 7.109375 C 3.1875 6.636719 3.425781 6.1875 3.710938 5.761719 C 3.996094 5.335938 4.320312 4.941406 4.679688 4.582031 C 5.042969 4.21875 5.4375 3.894531 5.863281 3.609375 C 6.289062 3.328125 6.738281 3.085938 7.210938 2.890625 C 7.683594 2.695312 8.171875 2.546875 8.671875 2.445312 C 9.175781 2.347656 9.679688 2.296875 10.191406 2.296875 L 105.023438 2.296875 C 105.535156 2.296875 106.039062 2.347656 106.542969 2.445312 C 107.042969 2.546875 107.53125 2.695312 108.003906 2.890625 C 108.476562 3.085938 108.925781 3.328125 109.351562 3.609375 C 109.777344 3.894531 110.171875 4.21875 110.535156 4.582031 C 110.894531 4.941406 111.21875 5.335938 111.503906 5.761719 C 111.789062 6.1875 112.027344 6.636719 112.222656 7.109375 C 112.417969 7.582031 112.566406 8.070312 112.667969 8.570312 C 112.765625 9.074219 112.816406 9.582031 112.816406 10.09375 L 112.816406 52.125 C 112.816406 52.636719 112.765625 53.144531 112.667969 53.644531 C 112.566406 54.148438 112.417969 54.632812 112.222656 55.109375 C 112.027344 55.582031 111.789062 56.03125 111.503906 56.457031 C 111.21875 56.878906 110.894531 57.273438 110.535156 57.636719 C 110.171875 58 109.777344 58.320312 109.351562 58.605469 C 108.925781 58.890625 108.476562 59.128906 108.003906 59.324219 C 107.53125 59.523438 107.042969 59.667969 106.542969 59.769531 C 106.039062 59.871094 105.535156 59.917969 105.023438 59.917969 Z M 105.023438 59.917969 " fill-opacity="1" fill-rule="nonzero"/></g><g clip-path="url(#1842a04b21)"><path fill="#ffffff" d="M 102.804688 57.703125 L 7.976562 57.703125 C 7.464844 57.703125 6.957031 57.652344 6.453125 57.550781 C 5.953125 57.453125 5.464844 57.304688 4.992188 57.109375 C 4.519531 56.914062 4.070312 56.671875 3.644531 56.386719 C 3.21875 56.105469 2.824219 55.78125 2.464844 55.417969 C 2.101562 55.058594 1.777344 54.664062 1.496094 54.238281 C 1.210938 53.8125 0.96875 53.363281 0.773438 52.890625 C 0.578125 52.417969 0.429688 51.929688 0.332031 51.429688 C 0.230469 50.925781 0.179688 50.417969 0.179688 49.90625 L 0.179688 7.875 C 0.179688 7.363281 0.230469 6.855469 0.332031 6.355469 C 0.429688 5.851562 0.578125 5.363281 0.773438 4.890625 C 0.96875 4.417969 1.210938 3.96875 1.496094 3.542969 C 1.777344 3.117188 2.101562 2.726562 2.464844 2.363281 C 2.824219 2 3.21875 1.679688 3.644531 1.394531 C 4.070312 1.109375 4.519531 0.871094 4.992188 0.671875 C 5.464844 0.476562 5.953125 0.328125 6.453125 0.230469 C 6.957031 0.128906 7.464844 0.0820312 7.976562 0.0820312 L 102.804688 0.0820312 C 103.316406 0.0820312 103.824219 0.128906 104.324219 0.230469 C 104.828125 0.328125 105.316406 0.476562 105.789062 0.671875 C 106.261719 0.871094 106.710938 1.109375 107.136719 1.394531 C 107.5625 1.679688 107.953125 2 108.316406 2.363281 C 108.679688 2.726562 109.003906 3.117188 109.285156 3.542969 C 109.570312 3.96875 109.8125 4.417969 110.007812 4.890625 C 110.203125 5.363281 110.351562 5.851562 110.449219 6.355469 C 110.550781 6.855469 110.601562 7.363281 110.601562 7.875 L 110.601562 49.90625 C 110.601562 50.417969 110.550781 50.925781 110.449219 51.429688 C 110.351562 51.929688 110.203125 52.417969 110.007812 52.890625 C 109.8125 53.363281 109.570312 53.8125 109.285156 54.238281 C 109.003906 54.664062 108.679688 55.058594 108.316406 55.417969 C 107.953125 55.78125 107.5625 56.105469 107.136719 56.386719 C 106.710938 56.671875 106.261719 56.914062 105.789062 57.109375 C 105.316406 57.304688 104.828125 57.453125 104.324219 57.550781 C 103.824219 57.652344 103.316406 57.703125 102.804688 57.703125 Z M 102.804688 57.703125 " fill-opacity="1" fill-rule="nonzero"/></g><path fill="#0ba14b" d="M 90.488281 54.886719 L 11.167969 54.886719 C 10.628906 54.886719 10.097656 54.835938 9.574219 54.730469 C 9.046875 54.625 8.535156 54.46875 8.039062 54.265625 C 7.542969 54.058594 7.074219 53.808594 6.628906 53.507812 C 6.183594 53.210938 5.769531 52.871094 5.390625 52.492188 C 5.011719 52.113281 4.671875 51.703125 4.375 51.253906 C 4.074219 50.808594 3.824219 50.339844 3.617188 49.84375 C 3.414062 49.347656 3.257812 48.835938 3.152344 48.308594 C 3.050781 47.785156 2.996094 47.253906 2.996094 46.714844 L 2.996094 20.191406 L 3.746094 20.191406 L 3.746094 46.714844 C 3.746094 50.808594 7.074219 54.136719 11.167969 54.136719 L 90.488281 54.136719 Z M 90.488281 54.886719 " fill-opacity="1" fill-rule="nonzero"/><path fill="#0ba14b" d="M 107.785156 37.589844 L 107.035156 37.589844 L 107.035156 11.066406 C 107.035156 6.972656 103.707031 3.648438 99.617188 3.648438 L 20.292969 3.648438 L 20.292969 2.894531 L 99.613281 2.894531 C 100.148438 2.894531 100.683594 2.949219 101.207031 3.054688 C 101.734375 3.15625 102.246094 3.3125 102.742188 3.515625 C 103.238281 3.722656 103.707031 3.972656 104.152344 4.273438 C 104.601562 4.570312 105.011719 4.910156 105.390625 5.289062 C 105.773438 5.667969 106.109375 6.082031 106.410156 6.527344 C 106.707031 6.972656 106.957031 7.445312 107.164062 7.9375 C 107.367188 8.433594 107.523438 8.945312 107.628906 9.472656 C 107.734375 10 107.785156 10.53125 107.785156 11.066406 Z M 107.785156 37.589844 " fill-opacity="1" fill-rule="nonzero"/><path fill="#0ba14b" d="M 7.335938 7.707031 C 7.335938 8.671875 6.65625 9.304688 5.738281 9.304688 C 4.804688 9.304688 4.121094 8.65625 4.121094 7.707031 C 4.121094 7.273438 4.1875 6.957031 4.574219 6.039062 L 5.539062 3.644531 L 7.1875 3.644531 L 6.453125 6.289062 C 7.003906 6.523438 7.335938 7.023438 7.335938 7.707031 Z M 11.269531 7.707031 C 11.269531 8.671875 10.585938 9.304688 9.671875 9.304688 C 8.738281 9.304688 8.054688 8.65625 8.054688 7.707031 C 8.054688 7.273438 8.121094 6.957031 8.503906 6.039062 L 9.46875 3.644531 L 11.121094 3.644531 L 10.386719 6.289062 C 10.9375 6.523438 11.269531 7.023438 11.269531 7.707031 Z M 11.269531 7.707031 " fill-opacity="1" fill-rule="nonzero"/><path fill="#0ba14b" d="M 103.441406 50.074219 C 103.441406 49.109375 104.125 48.476562 105.042969 48.476562 C 105.976562 48.476562 106.660156 49.125 106.660156 50.074219 C 106.660156 50.507812 106.59375 50.828125 106.207031 51.742188 L 105.242188 54.140625 L 103.59375 54.140625 L 104.324219 51.492188 C 103.777344 51.257812 103.441406 50.757812 103.441406 50.074219 Z M 99.511719 50.074219 C 99.511719 49.109375 100.195312 48.476562 101.109375 48.476562 C 102.042969 48.476562 102.726562 49.125 102.726562 50.074219 C 102.726562 50.507812 102.660156 50.828125 102.277344 51.742188 L 101.308594 54.140625 L 99.660156 54.140625 L 100.394531 51.492188 C 99.84375 51.257812 99.511719 50.757812 99.511719 50.074219 Z M 99.511719 50.074219 " fill-opacity="1" fill-rule="nonzero"/><g transform="matrix(1, 0, 0, 1, 13, 12)"><g clip-path="url(#2dc6a4c031)"><g clip-path="url(#3d74316310)"><g fill="#0ba14b" fill-opacity="1"><g transform="translate(0.571359, 15.814465)"><g><path d="M 6.8125 -4.25 C 6.6875 -4.195312 6.625 -4.117188 6.625 -4.015625 C 6.625 -3.984375 6.640625 -3.9375 6.671875 -3.875 C 6.921875 -3.5 7.1875 -3.125 7.46875 -2.75 C 7.757812 -2.382812 8.035156 -2.082031 8.296875 -1.84375 C 8.359375 -1.78125 8.390625 -1.703125 8.390625 -1.609375 C 8.390625 -1.523438 8.359375 -1.453125 8.296875 -1.390625 C 8.140625 -1.265625 7.945312 -1.109375 7.71875 -0.921875 C 7.488281 -0.742188 7.25 -0.578125 7 -0.421875 C 6.75 -0.273438 6.523438 -0.160156 6.328125 -0.078125 C 6.253906 -0.0546875 6.195312 -0.046875 6.15625 -0.046875 C 6.019531 -0.046875 5.894531 -0.09375 5.78125 -0.1875 C 5.476562 -0.445312 5.203125 -0.773438 4.953125 -1.171875 C 4.710938 -1.578125 4.507812 -1.992188 4.34375 -2.421875 C 4.1875 -2.847656 4.0625 -3.226562 3.96875 -3.5625 C 3.945312 -3.632812 3.914062 -3.703125 3.875 -3.765625 C 3.84375 -3.828125 3.789062 -3.859375 3.71875 -3.859375 C 3.582031 -3.859375 3.492188 -3.78125 3.453125 -3.625 C 3.367188 -3.070312 3.28125 -2.515625 3.1875 -1.953125 C 3.09375 -1.390625 3.019531 -0.84375 2.96875 -0.3125 C 2.9375 -0.125 2.835938 -0.03125 2.671875 -0.03125 C 2.578125 -0.03125 2.382812 -0.0625 2.09375 -0.125 C 1.800781 -0.195312 1.507812 -0.28125 1.21875 -0.375 C 0.925781 -0.46875 0.710938 -0.539062 0.578125 -0.59375 C 0.460938 -0.644531 0.382812 -0.710938 0.34375 -0.796875 C 0.300781 -0.878906 0.273438 -0.957031 0.265625 -1.03125 C 0.265625 -1.5 0.304688 -2.078125 0.390625 -2.765625 C 0.484375 -3.453125 0.597656 -4.1875 0.734375 -4.96875 C 0.878906 -5.757812 1.03125 -6.539062 1.1875 -7.3125 C 1.351562 -8.09375 1.515625 -8.789062 1.671875 -9.40625 C 1.703125 -9.476562 1.722656 -9.554688 1.734375 -9.640625 C 1.742188 -9.722656 1.75 -9.785156 1.75 -9.828125 C 1.75 -9.890625 1.742188 -9.992188 1.734375 -10.140625 C 1.734375 -10.296875 1.734375 -10.421875 1.734375 -10.515625 C 1.734375 -10.597656 1.753906 -10.671875 1.796875 -10.734375 C 1.847656 -10.796875 1.910156 -10.835938 1.984375 -10.859375 C 2.296875 -10.984375 2.71875 -11.117188 3.25 -11.265625 C 3.789062 -11.410156 4.425781 -11.484375 5.15625 -11.484375 C 5.6875 -11.484375 6.203125 -11.359375 6.703125 -11.109375 C 7.210938 -10.859375 7.671875 -10.535156 8.078125 -10.140625 C 8.484375 -9.753906 8.800781 -9.335938 9.03125 -8.890625 C 9.269531 -8.453125 9.390625 -8.039062 9.390625 -7.65625 C 9.390625 -6.863281 9.144531 -6.171875 8.65625 -5.578125 C 8.164062 -4.992188 7.550781 -4.550781 6.8125 -4.25 Z M 4.921875 -9 C 4.835938 -9 4.753906 -8.972656 4.671875 -8.921875 C 4.585938 -8.867188 4.535156 -8.800781 4.515625 -8.71875 C 4.472656 -8.5625 4.414062 -8.34375 4.34375 -8.0625 C 4.28125 -7.78125 4.21875 -7.492188 4.15625 -7.203125 C 4.09375 -6.921875 4.039062 -6.675781 4 -6.46875 C 3.957031 -6.269531 3.9375 -6.160156 3.9375 -6.140625 C 3.9375 -6.003906 4.007812 -5.9375 4.15625 -5.9375 C 4.570312 -5.9375 4.945312 -6.039062 5.28125 -6.25 C 5.613281 -6.46875 5.875 -6.726562 6.0625 -7.03125 C 6.257812 -7.34375 6.359375 -7.628906 6.359375 -7.890625 C 6.359375 -8.296875 6.210938 -8.582031 5.921875 -8.75 C 5.640625 -8.914062 5.304688 -9 4.921875 -9 Z M 4.921875 -9 "/></g></g></g></g><g fill="#0ba14b" fill-opacity="1"><g transform="translate(9.637979, 15.814465)"><g><path d="M 8.15625 -8.03125 C 8.21875 -8.007812 8.265625 -7.960938 8.296875 -7.890625 C 8.335938 -7.816406 8.359375 -7.75 8.359375 -7.6875 C 8.359375 -7.65625 8.351562 -7.628906 8.34375 -7.609375 C 8.34375 -7.585938 8.34375 -7.578125 8.34375 -7.578125 C 8.144531 -6.921875 7.972656 -6.242188 7.828125 -5.546875 C 7.691406 -4.859375 7.570312 -4.179688 7.46875 -3.515625 C 7.375 -2.859375 7.300781 -2.253906 7.25 -1.703125 C 7.195312 -1.148438 7.164062 -0.691406 7.15625 -0.328125 C 7.15625 -0.242188 7.125 -0.171875 7.0625 -0.109375 C 7.007812 -0.046875 6.9375 -0.015625 6.84375 -0.015625 C 6.726562 -0.015625 6.5625 -0.0351562 6.34375 -0.078125 C 6.132812 -0.128906 5.921875 -0.1875 5.703125 -0.25 C 5.492188 -0.3125 5.332031 -0.359375 5.21875 -0.390625 C 5.132812 -0.421875 5.050781 -0.472656 4.96875 -0.546875 C 4.894531 -0.628906 4.847656 -0.738281 4.828125 -0.875 L 4.75 -1.546875 C 4.738281 -1.648438 4.707031 -1.703125 4.65625 -1.703125 C 4.625 -1.703125 4.59375 -1.664062 4.5625 -1.59375 C 4.300781 -1.101562 4.007812 -0.710938 3.6875 -0.421875 C 3.363281 -0.128906 3.046875 0.015625 2.734375 0.015625 C 2.484375 0.015625 2.21875 -0.0546875 1.9375 -0.203125 C 1.65625 -0.359375 1.390625 -0.5625 1.140625 -0.8125 C 0.890625 -1.070312 0.679688 -1.359375 0.515625 -1.671875 C 0.359375 -1.984375 0.28125 -2.296875 0.28125 -2.609375 C 0.28125 -3.316406 0.34375 -4.046875 0.46875 -4.796875 C 0.601562 -5.546875 0.757812 -6.234375 0.9375 -6.859375 C 1.125 -7.484375 1.285156 -7.972656 1.421875 -8.328125 C 1.484375 -8.503906 1.601562 -8.59375 1.78125 -8.59375 C 1.863281 -8.59375 2 -8.5625 2.1875 -8.5 C 2.382812 -8.4375 2.601562 -8.363281 2.84375 -8.28125 C 3.082031 -8.195312 3.300781 -8.113281 3.5 -8.03125 C 3.695312 -7.945312 3.832031 -7.878906 3.90625 -7.828125 C 4 -7.765625 4.046875 -7.660156 4.046875 -7.515625 C 4.046875 -7.472656 4.039062 -7.4375 4.03125 -7.40625 C 4.03125 -7.375 4.03125 -7.359375 4.03125 -7.359375 C 3.957031 -7.117188 3.867188 -6.804688 3.765625 -6.421875 C 3.660156 -6.046875 3.5625 -5.644531 3.46875 -5.21875 C 3.375 -4.800781 3.296875 -4.40625 3.234375 -4.03125 C 3.171875 -3.65625 3.140625 -3.359375 3.140625 -3.140625 C 3.140625 -2.910156 3.175781 -2.796875 3.25 -2.796875 C 3.382812 -2.796875 3.550781 -2.867188 3.75 -3.015625 C 3.945312 -3.160156 4.132812 -3.335938 4.3125 -3.546875 C 4.488281 -3.765625 4.597656 -3.976562 4.640625 -4.1875 C 4.710938 -4.675781 4.804688 -5.1875 4.921875 -5.71875 C 5.035156 -6.25 5.148438 -6.75 5.265625 -7.21875 C 5.390625 -7.6875 5.503906 -8.066406 5.609375 -8.359375 C 5.628906 -8.441406 5.675781 -8.507812 5.75 -8.5625 C 5.820312 -8.613281 5.90625 -8.640625 6 -8.640625 C 6.082031 -8.640625 6.257812 -8.601562 6.53125 -8.53125 C 6.8125 -8.46875 7.109375 -8.390625 7.421875 -8.296875 C 7.742188 -8.210938 7.988281 -8.125 8.15625 -8.03125 Z M 8.15625 -8.03125 "/></g></g></g><g fill="#0ba14b" fill-opacity="1"><g transform="translate(17.789464, 15.814465)"><g><path d="M 0.9375 2.984375 C 0.820312 3.066406 0.703125 3.109375 0.578125 3.109375 C 0.503906 3.109375 0.445312 3.097656 0.40625 3.078125 C 0.363281 3.054688 0.34375 3.046875 0.34375 3.046875 C 0.0703125 2.921875 -0.210938 2.757812 -0.515625 2.5625 C -0.816406 2.363281 -1.050781 2.191406 -1.21875 2.046875 C -1.257812 2.003906 -1.28125 1.945312 -1.28125 1.875 C -1.28125 1.800781 -1.257812 1.742188 -1.21875 1.703125 C -1.1875 1.660156 -1.171875 1.640625 -1.171875 1.640625 C -0.972656 1.492188 -0.769531 1.265625 -0.5625 0.953125 C -0.363281 0.640625 -0.210938 0.242188 -0.109375 -0.234375 C -0.046875 -0.515625 0.03125 -0.914062 0.125 -1.4375 C 0.21875 -1.957031 0.316406 -2.539062 0.421875 -3.1875 C 0.523438 -3.84375 0.632812 -4.5 0.75 -5.15625 C 0.863281 -5.8125 0.96875 -6.421875 1.0625 -6.984375 C 1.15625 -7.554688 1.242188 -8.023438 1.328125 -8.390625 C 1.359375 -8.585938 1.472656 -8.6875 1.671875 -8.6875 C 1.828125 -8.6875 2.050781 -8.660156 2.34375 -8.609375 C 2.632812 -8.566406 2.921875 -8.519531 3.203125 -8.46875 C 3.484375 -8.414062 3.679688 -8.375 3.796875 -8.34375 C 3.972656 -8.289062 4.0625 -8.164062 4.0625 -7.96875 C 4.0625 -7.945312 4.054688 -7.910156 4.046875 -7.859375 C 4.046875 -7.816406 4.046875 -7.796875 4.046875 -7.796875 C 4.003906 -7.472656 3.941406 -7.046875 3.859375 -6.515625 C 3.785156 -5.992188 3.695312 -5.425781 3.59375 -4.8125 C 3.488281 -4.207031 3.382812 -3.609375 3.28125 -3.015625 C 3.175781 -2.429688 3.078125 -1.90625 2.984375 -1.4375 C 2.890625 -0.96875 2.816406 -0.613281 2.765625 -0.375 C 2.679688 0 2.5625 0.398438 2.40625 0.828125 C 2.25 1.253906 2.050781 1.65625 1.8125 2.03125 C 1.570312 2.414062 1.28125 2.734375 0.9375 2.984375 Z M 2.875 -12.421875 C 3.5 -12.421875 3.984375 -12.269531 4.328125 -11.96875 C 4.679688 -11.675781 4.859375 -11.316406 4.859375 -10.890625 C 4.859375 -10.410156 4.6875 -10.007812 4.34375 -9.6875 C 4 -9.363281 3.535156 -9.203125 2.953125 -9.203125 C 2.453125 -9.203125 2.078125 -9.351562 1.828125 -9.65625 C 1.578125 -9.96875 1.453125 -10.34375 1.453125 -10.78125 C 1.453125 -11.082031 1.535156 -11.359375 1.703125 -11.609375 C 1.878906 -11.859375 2.066406 -12.066406 2.265625 -12.234375 C 2.429688 -12.359375 2.632812 -12.421875 2.875 -12.421875 Z M 2.875 -12.421875 "/></g></g></g><g fill="#0ba14b" fill-opacity="1"><g transform="translate(21.670312, 15.814465)"><g><path d="M 8.15625 -8.03125 C 8.21875 -8.007812 8.265625 -7.960938 8.296875 -7.890625 C 8.335938 -7.816406 8.359375 -7.75 8.359375 -7.6875 C 8.359375 -7.65625 8.351562 -7.628906 8.34375 -7.609375 C 8.34375 -7.585938 8.34375 -7.578125 8.34375 -7.578125 C 8.144531 -6.921875 7.972656 -6.242188 7.828125 -5.546875 C 7.691406 -4.859375 7.570312 -4.179688 7.46875 -3.515625 C 7.375 -2.859375 7.300781 -2.253906 7.25 -1.703125 C 7.195312 -1.148438 7.164062 -0.691406 7.15625 -0.328125 C 7.15625 -0.242188 7.125 -0.171875 7.0625 -0.109375 C 7.007812 -0.046875 6.9375 -0.015625 6.84375 -0.015625 C 6.726562 -0.015625 6.5625 -0.0351562 6.34375 -0.078125 C 6.132812 -0.128906 5.921875 -0.1875 5.703125 -0.25 C 5.492188 -0.3125 5.332031 -0.359375 5.21875 -0.390625 C 5.132812 -0.421875 5.050781 -0.472656 4.96875 -0.546875 C 4.894531 -0.628906 4.847656 -0.738281 4.828125 -0.875 L 4.75 -1.546875 C 4.738281 -1.648438 4.707031 -1.703125 4.65625 -1.703125 C 4.625 -1.703125 4.59375 -1.664062 4.5625 -1.59375 C 4.300781 -1.101562 4.007812 -0.710938 3.6875 -0.421875 C 3.363281 -0.128906 3.046875 0.015625 2.734375 0.015625 C 2.484375 0.015625 2.21875 -0.0546875 1.9375 -0.203125 C 1.65625 -0.359375 1.390625 -0.5625 1.140625 -0.8125 C 0.890625 -1.070312 0.679688 -1.359375 0.515625 -1.671875 C 0.359375 -1.984375 0.28125 -2.296875 0.28125 -2.609375 C 0.28125 -3.316406 0.34375 -4.046875 0.46875 -4.796875 C 0.601562 -5.546875 0.757812 -6.234375 0.9375 -6.859375 C 1.125 -7.484375 1.285156 -7.972656 1.421875 -8.328125 C 1.484375 -8.503906 1.601562 -8.59375 1.78125 -8.59375 C 1.863281 -8.59375 2 -8.5625 2.1875 -8.5 C 2.382812 -8.4375 2.601562 -8.363281 2.84375 -8.28125 C 3.082031 -8.195312 3.300781 -8.113281 3.5 -8.03125 C 3.695312 -7.945312 3.832031 -7.878906 3.90625 -7.828125 C 4 -7.765625 4.046875 -7.660156 4.046875 -7.515625 C 4.046875 -7.472656 4.039062 -7.4375 4.03125 -7.40625 C 4.03125 -7.375 4.03125 -7.359375 4.03125 -7.359375 C 3.957031 -7.117188 3.867188 -6.804688 3.765625 -6.421875 C 3.660156 -6.046875 3.5625 -5.644531 3.46875 -5.21875 C 3.375 -4.800781 3.296875 -4.40625 3.234375 -4.03125 C 3.171875 -3.65625 3.140625 -3.359375 3.140625 -3.140625 C 3.140625 -2.910156 3.175781 -2.796875 3.25 -2.796875 C 3.382812 -2.796875 3.550781 -2.867188 3.75 -3.015625 C 3.945312 -3.160156 4.132812 -3.335938 4.3125 -3.546875 C 4.488281 -3.765625 4.597656 -3.976562 4.640625 -4.1875 C 4.710938 -4.675781 4.804688 -5.1875 4.921875 -5.71875 C 5.035156 -6.25 5.148438 -6.75 5.265625 -7.21875 C 5.390625 -7.6875 5.503906 -8.066406 5.609375 -8.359375 C 5.628906 -8.441406 5.675781 -8.507812 5.75 -8.5625 C 5.820312 -8.613281 5.90625 -8.640625 6 -8.640625 C 6.082031 -8.640625 6.257812 -8.601562 6.53125 -8.53125 C 6.8125 -8.46875 7.109375 -8.390625 7.421875 -8.296875 C 7.742188 -8.210938 7.988281 -8.125 8.15625 -8.03125 Z M 8.15625 -8.03125 "/></g></g></g><g fill="#0ba14b" fill-opacity="1"><g transform="translate(29.821797, 15.814465)"><g><path d="M 5.875 -4.4375 C 5.789062 -4.375 5.75 -4.289062 5.75 -4.1875 C 5.75 -4.144531 5.765625 -4.09375 5.796875 -4.03125 C 6.023438 -3.644531 6.285156 -3.253906 6.578125 -2.859375 C 6.867188 -2.472656 7.144531 -2.144531 7.40625 -1.875 C 7.488281 -1.800781 7.53125 -1.71875 7.53125 -1.625 C 7.53125 -1.550781 7.5 -1.484375 7.4375 -1.421875 C 7.101562 -1.109375 6.738281 -0.828125 6.34375 -0.578125 C 5.957031 -0.335938 5.640625 -0.164062 5.390625 -0.0625 C 5.390625 -0.0625 5.363281 -0.0546875 5.3125 -0.046875 C 5.269531 -0.0351562 5.222656 -0.03125 5.171875 -0.03125 C 5.023438 -0.03125 4.898438 -0.0820312 4.796875 -0.1875 C 4.648438 -0.34375 4.5 -0.566406 4.34375 -0.859375 C 4.1875 -1.160156 4.039062 -1.476562 3.90625 -1.8125 C 3.78125 -2.144531 3.675781 -2.441406 3.59375 -2.703125 C 3.570312 -2.785156 3.539062 -2.859375 3.5 -2.921875 C 3.457031 -2.992188 3.410156 -3.03125 3.359375 -3.03125 C 3.285156 -3.03125 3.234375 -2.992188 3.203125 -2.921875 C 3.171875 -2.859375 3.144531 -2.785156 3.125 -2.703125 C 3.0625 -2.304688 3 -1.90625 2.9375 -1.5 C 2.882812 -1.101562 2.835938 -0.710938 2.796875 -0.328125 C 2.765625 -0.140625 2.65625 -0.046875 2.46875 -0.046875 C 2.34375 -0.046875 2.140625 -0.078125 1.859375 -0.140625 C 1.578125 -0.210938 1.300781 -0.296875 1.03125 -0.390625 C 0.757812 -0.484375 0.5625 -0.554688 0.4375 -0.609375 C 0.320312 -0.660156 0.25 -0.726562 0.21875 -0.8125 C 0.1875 -0.90625 0.171875 -0.992188 0.171875 -1.078125 C 0.179688 -1.503906 0.21875 -2.019531 0.28125 -2.625 C 0.351562 -3.226562 0.445312 -3.875 0.5625 -4.5625 C 0.675781 -5.257812 0.804688 -5.960938 0.953125 -6.671875 C 1.097656 -7.390625 1.242188 -8.070312 1.390625 -8.71875 C 1.535156 -9.363281 1.679688 -9.9375 1.828125 -10.4375 C 1.972656 -10.945312 2.109375 -11.335938 2.234375 -11.609375 C 2.304688 -11.785156 2.429688 -11.875 2.609375 -11.875 C 2.671875 -11.875 2.804688 -11.84375 3.015625 -11.78125 C 3.222656 -11.726562 3.453125 -11.664062 3.703125 -11.59375 C 3.953125 -11.519531 4.179688 -11.445312 4.390625 -11.375 C 4.609375 -11.3125 4.742188 -11.265625 4.796875 -11.234375 C 4.941406 -11.191406 5.015625 -11.085938 5.015625 -10.921875 C 5.015625 -10.898438 5.007812 -10.875 5 -10.84375 C 5 -10.820312 5 -10.8125 5 -10.8125 C 4.84375 -10.332031 4.640625 -9.640625 4.390625 -8.734375 C 4.148438 -7.835938 3.910156 -6.796875 3.671875 -5.609375 C 3.671875 -5.609375 3.664062 -5.59375 3.65625 -5.5625 C 3.65625 -5.539062 3.65625 -5.519531 3.65625 -5.5 C 3.65625 -5.40625 3.6875 -5.359375 3.75 -5.359375 C 3.800781 -5.359375 3.894531 -5.441406 4.03125 -5.609375 C 4.300781 -5.960938 4.570312 -6.320312 4.84375 -6.6875 C 5.125 -7.050781 5.382812 -7.390625 5.625 -7.703125 C 5.863281 -8.023438 6.050781 -8.273438 6.1875 -8.453125 C 6.257812 -8.546875 6.347656 -8.59375 6.453125 -8.59375 C 6.535156 -8.59375 6.597656 -8.578125 6.640625 -8.546875 C 6.898438 -8.390625 7.179688 -8.164062 7.484375 -7.875 C 7.785156 -7.582031 8.035156 -7.304688 8.234375 -7.046875 C 8.234375 -7.046875 8.242188 -7.023438 8.265625 -6.984375 C 8.296875 -6.953125 8.3125 -6.90625 8.3125 -6.84375 C 8.3125 -6.75 8.265625 -6.65625 8.171875 -6.5625 C 7.953125 -6.363281 7.628906 -6.0625 7.203125 -5.65625 C 6.785156 -5.25 6.34375 -4.84375 5.875 -4.4375 Z M 5.875 -4.4375 "/></g></g></g><g fill="#0ba14b" fill-opacity="1"><g transform="translate(37.702115, 15.814465)"><g><path d="M 5.21875 -0.421875 C 5.070312 -0.460938 4.972656 -0.53125 4.921875 -0.625 C 4.867188 -0.71875 4.832031 -0.800781 4.8125 -0.875 L 4.765625 -1.4375 C 4.765625 -1.53125 4.742188 -1.578125 4.703125 -1.578125 C 4.660156 -1.578125 4.625 -1.539062 4.59375 -1.46875 C 4.320312 -1.007812 4.039062 -0.648438 3.75 -0.390625 C 3.46875 -0.128906 3.191406 0 2.921875 0 C 2.617188 0 2.3125 -0.078125 2 -0.234375 C 1.695312 -0.398438 1.410156 -0.625 1.140625 -0.90625 C 0.878906 -1.195312 0.664062 -1.523438 0.5 -1.890625 C 0.332031 -2.265625 0.25 -2.65625 0.25 -3.0625 C 0.25 -3.46875 0.289062 -3.921875 0.375 -4.421875 C 0.46875 -4.929688 0.601562 -5.4375 0.78125 -5.9375 C 0.957031 -6.445312 1.191406 -6.910156 1.484375 -7.328125 C 1.785156 -7.753906 2.144531 -8.097656 2.5625 -8.359375 C 2.976562 -8.617188 3.460938 -8.75 4.015625 -8.75 C 4.316406 -8.75 4.707031 -8.675781 5.1875 -8.53125 C 5.675781 -8.382812 6.171875 -8.195312 6.671875 -7.96875 C 7.179688 -7.738281 7.628906 -7.492188 8.015625 -7.234375 C 8.148438 -7.148438 8.21875 -7.035156 8.21875 -6.890625 C 8.21875 -6.867188 8.210938 -6.835938 8.203125 -6.796875 C 8.203125 -6.765625 8.203125 -6.75 8.203125 -6.75 C 7.972656 -5.914062 7.789062 -5.09375 7.65625 -4.28125 C 7.519531 -3.46875 7.421875 -2.71875 7.359375 -2.03125 C 7.296875 -1.351562 7.257812 -0.785156 7.25 -0.328125 C 7.238281 -0.242188 7.207031 -0.171875 7.15625 -0.109375 C 7.113281 -0.0546875 7.050781 -0.03125 6.96875 -0.03125 C 6.882812 -0.03125 6.726562 -0.0546875 6.5 -0.109375 C 6.28125 -0.160156 6.046875 -0.21875 5.796875 -0.28125 C 5.554688 -0.34375 5.363281 -0.390625 5.21875 -0.421875 Z M 4.375 -3.265625 C 4.476562 -3.367188 4.539062 -3.484375 4.5625 -3.609375 C 4.613281 -4.003906 4.6875 -4.398438 4.78125 -4.796875 C 4.875 -5.191406 4.957031 -5.582031 5.03125 -5.96875 L 5.03125 -6.046875 C 5.03125 -6.171875 4.988281 -6.257812 4.90625 -6.3125 C 4.832031 -6.375 4.738281 -6.40625 4.625 -6.40625 C 4.382812 -6.40625 4.175781 -6.296875 4 -6.078125 C 3.820312 -5.859375 3.664062 -5.582031 3.53125 -5.25 C 3.40625 -4.925781 3.3125 -4.59375 3.25 -4.25 C 3.1875 -3.914062 3.15625 -3.628906 3.15625 -3.390625 C 3.15625 -2.910156 3.234375 -2.671875 3.390625 -2.671875 C 3.515625 -2.671875 3.671875 -2.734375 3.859375 -2.859375 C 4.046875 -2.984375 4.21875 -3.117188 4.375 -3.265625 Z M 4.375 -3.265625 "/></g></g></g><g fill="#0ba14b" fill-opacity="1"><g transform="translate(45.8536, 15.814465)"><g><path d="M 4.125 -7.3125 C 4.40625 -7.726562 4.703125 -8.066406 5.015625 -8.328125 C 5.335938 -8.585938 5.648438 -8.71875 5.953125 -8.71875 C 6.148438 -8.71875 6.375 -8.648438 6.625 -8.515625 C 6.875 -8.378906 7.113281 -8.203125 7.34375 -7.984375 C 7.570312 -7.765625 7.757812 -7.535156 7.90625 -7.296875 C 8.050781 -7.066406 8.125 -6.84375 8.125 -6.625 C 8.125 -6.457031 8.097656 -6.191406 8.046875 -5.828125 C 7.992188 -5.472656 7.925781 -5.050781 7.84375 -4.5625 C 7.769531 -4.082031 7.679688 -3.582031 7.578125 -3.0625 C 7.472656 -2.539062 7.367188 -2.039062 7.265625 -1.5625 C 7.160156 -1.082031 7.0625 -0.664062 6.96875 -0.3125 C 6.945312 -0.226562 6.898438 -0.15625 6.828125 -0.09375 C 6.753906 -0.0390625 6.671875 -0.015625 6.578125 -0.015625 C 6.441406 -0.015625 6.222656 -0.0546875 5.921875 -0.140625 C 5.617188 -0.234375 5.328125 -0.335938 5.046875 -0.453125 C 4.765625 -0.578125 4.566406 -0.675781 4.453125 -0.75 C 4.304688 -0.851562 4.234375 -0.976562 4.234375 -1.125 C 4.234375 -1.15625 4.234375 -1.179688 4.234375 -1.203125 C 4.242188 -1.234375 4.25 -1.25 4.25 -1.25 C 4.3125 -1.488281 4.382812 -1.800781 4.46875 -2.1875 C 4.550781 -2.582031 4.632812 -2.992188 4.71875 -3.421875 C 4.8125 -3.859375 4.882812 -4.269531 4.9375 -4.65625 C 5 -5.050781 5.03125 -5.375 5.03125 -5.625 C 5.03125 -5.894531 4.988281 -6.03125 4.90625 -6.03125 C 4.820312 -6.03125 4.671875 -5.96875 4.453125 -5.84375 C 4.242188 -5.71875 4.050781 -5.566406 3.875 -5.390625 C 3.800781 -5.304688 3.742188 -5.21875 3.703125 -5.125 C 3.660156 -5.03125 3.628906 -4.9375 3.609375 -4.84375 C 3.503906 -4.320312 3.394531 -3.769531 3.28125 -3.1875 C 3.175781 -2.613281 3.070312 -2.070312 2.96875 -1.5625 C 2.863281 -1.050781 2.78125 -0.632812 2.71875 -0.3125 C 2.65625 -0.125 2.539062 -0.03125 2.375 -0.03125 C 2.226562 -0.03125 2.003906 -0.0664062 1.703125 -0.140625 C 1.410156 -0.222656 1.125 -0.316406 0.84375 -0.421875 C 0.5625 -0.523438 0.367188 -0.601562 0.265625 -0.65625 C 0.191406 -0.707031 0.132812 -0.769531 0.09375 -0.84375 C 0.0625 -0.925781 0.046875 -1.003906 0.046875 -1.078125 C 0.046875 -1.109375 0.046875 -1.140625 0.046875 -1.171875 C 0.0546875 -1.203125 0.0625 -1.21875 0.0625 -1.21875 C 0.125 -1.5 0.191406 -1.878906 0.265625 -2.359375 C 0.347656 -2.835938 0.4375 -3.367188 0.53125 -3.953125 C 0.625 -4.535156 0.710938 -5.117188 0.796875 -5.703125 C 0.890625 -6.285156 0.972656 -6.820312 1.046875 -7.3125 C 1.117188 -7.800781 1.175781 -8.195312 1.21875 -8.5 C 1.238281 -8.582031 1.285156 -8.648438 1.359375 -8.703125 C 1.429688 -8.753906 1.507812 -8.78125 1.59375 -8.78125 C 1.707031 -8.78125 1.898438 -8.753906 2.171875 -8.703125 C 2.453125 -8.660156 2.726562 -8.613281 3 -8.5625 C 3.28125 -8.507812 3.476562 -8.457031 3.59375 -8.40625 C 3.78125 -8.34375 3.882812 -8.1875 3.90625 -7.9375 L 3.9375 -7.375 C 3.9375 -7.269531 3.957031 -7.21875 4 -7.21875 C 4.019531 -7.21875 4.046875 -7.234375 4.078125 -7.265625 C 4.109375 -7.296875 4.125 -7.3125 4.125 -7.3125 Z M 4.125 -7.3125 "/></g></g></g></g></g><g transform="matrix(1, 0, 0, 1, 42, 27)"><g clip-path="url(#34bc4f7984)"><g fill="#0ba14b" fill-opacity="1"><g transform="translate(1.028662, 16.405619)"><g><path d="M 7.234375 -11.1875 C 7.285156 -11.332031 7.410156 -11.40625 7.609375 -11.40625 C 7.691406 -11.40625 7.832031 -11.382812 8.03125 -11.34375 C 8.226562 -11.3125 8.441406 -11.265625 8.671875 -11.203125 C 8.910156 -11.148438 9.128906 -11.09375 9.328125 -11.03125 C 9.535156 -10.96875 9.6875 -10.910156 9.78125 -10.859375 C 9.925781 -10.796875 10 -10.6875 10 -10.53125 C 10 -10.519531 9.992188 -10.5 9.984375 -10.46875 C 9.984375 -10.4375 9.984375 -10.421875 9.984375 -10.421875 C 9.859375 -10.023438 9.703125 -9.460938 9.515625 -8.734375 C 9.328125 -8.015625 9.128906 -7.1875 8.921875 -6.25 C 8.722656 -5.320312 8.535156 -4.347656 8.359375 -3.328125 C 8.179688 -2.304688 8.039062 -1.300781 7.9375 -0.3125 C 7.925781 -0.226562 7.890625 -0.160156 7.828125 -0.109375 C 7.765625 -0.0546875 7.691406 -0.03125 7.609375 -0.03125 C 7.503906 -0.03125 7.332031 -0.046875 7.09375 -0.078125 C 6.851562 -0.117188 6.582031 -0.160156 6.28125 -0.203125 C 5.988281 -0.253906 5.710938 -0.3125 5.453125 -0.375 C 5.191406 -0.4375 4.988281 -0.503906 4.84375 -0.578125 C 4.75 -0.617188 4.671875 -0.679688 4.609375 -0.765625 C 4.546875 -0.859375 4.5 -0.941406 4.46875 -1.015625 C 4.414062 -1.171875 4.363281 -1.421875 4.3125 -1.765625 C 4.257812 -2.109375 4.210938 -2.5 4.171875 -2.9375 C 4.128906 -3.375 4.085938 -3.816406 4.046875 -4.265625 C 4.003906 -4.710938 3.96875 -5.117188 3.9375 -5.484375 C 3.914062 -5.859375 3.890625 -6.15625 3.859375 -6.375 C 3.859375 -6.457031 3.835938 -6.5 3.796875 -6.5 C 3.765625 -6.5 3.742188 -6.457031 3.734375 -6.375 C 3.578125 -5.476562 3.414062 -4.5 3.25 -3.4375 C 3.09375 -2.375 2.957031 -1.335938 2.84375 -0.328125 C 2.832031 -0.242188 2.796875 -0.171875 2.734375 -0.109375 C 2.671875 -0.0546875 2.601562 -0.03125 2.53125 -0.03125 C 2.425781 -0.03125 2.238281 -0.0625 1.96875 -0.125 C 1.695312 -0.195312 1.421875 -0.273438 1.140625 -0.359375 C 0.859375 -0.441406 0.648438 -0.515625 0.515625 -0.578125 C 0.410156 -0.617188 0.332031 -0.6875 0.28125 -0.78125 C 0.238281 -0.875 0.21875 -0.960938 0.21875 -1.046875 C 0.226562 -1.523438 0.285156 -2.128906 0.390625 -2.859375 C 0.492188 -3.585938 0.617188 -4.363281 0.765625 -5.1875 C 0.910156 -6.007812 1.066406 -6.816406 1.234375 -7.609375 C 1.398438 -8.398438 1.566406 -9.113281 1.734375 -9.75 C 1.910156 -10.382812 2.0625 -10.859375 2.1875 -11.171875 C 2.25 -11.335938 2.378906 -11.421875 2.578125 -11.421875 C 2.660156 -11.421875 2.816406 -11.40625 3.046875 -11.375 C 3.273438 -11.34375 3.539062 -11.300781 3.84375 -11.25 C 4.15625 -11.195312 4.445312 -11.140625 4.71875 -11.078125 C 5 -11.015625 5.21875 -10.953125 5.375 -10.890625 C 5.59375 -10.785156 5.710938 -10.628906 5.734375 -10.421875 C 5.753906 -10.160156 5.773438 -9.816406 5.796875 -9.390625 C 5.816406 -8.960938 5.835938 -8.507812 5.859375 -8.03125 C 5.890625 -7.550781 5.910156 -7.097656 5.921875 -6.671875 C 5.941406 -6.242188 5.957031 -5.910156 5.96875 -5.671875 C 5.96875 -5.585938 5.988281 -5.546875 6.03125 -5.546875 C 6.050781 -5.546875 6.078125 -5.585938 6.109375 -5.671875 C 6.203125 -6.421875 6.316406 -7.160156 6.453125 -7.890625 C 6.585938 -8.617188 6.722656 -9.273438 6.859375 -9.859375 C 6.992188 -10.453125 7.117188 -10.894531 7.234375 -11.1875 Z M 7.234375 -11.1875 "/></g></g></g><g fill="#0ba14b" fill-opacity="1"><g transform="translate(10.095282, 16.405619)"><g><path d="M 5.21875 -0.421875 C 5.070312 -0.460938 4.972656 -0.53125 4.921875 -0.625 C 4.867188 -0.71875 4.832031 -0.800781 4.8125 -0.875 L 4.765625 -1.4375 C 4.765625 -1.53125 4.742188 -1.578125 4.703125 -1.578125 C 4.660156 -1.578125 4.625 -1.539062 4.59375 -1.46875 C 4.320312 -1.007812 4.039062 -0.648438 3.75 -0.390625 C 3.46875 -0.128906 3.191406 0 2.921875 0 C 2.617188 0 2.3125 -0.078125 2 -0.234375 C 1.695312 -0.398438 1.410156 -0.625 1.140625 -0.90625 C 0.878906 -1.195312 0.664062 -1.523438 0.5 -1.890625 C 0.332031 -2.265625 0.25 -2.65625 0.25 -3.0625 C 0.25 -3.46875 0.289062 -3.921875 0.375 -4.421875 C 0.46875 -4.929688 0.601562 -5.4375 0.78125 -5.9375 C 0.957031 -6.445312 1.191406 -6.910156 1.484375 -7.328125 C 1.785156 -7.753906 2.144531 -8.097656 2.5625 -8.359375 C 2.976562 -8.617188 3.460938 -8.75 4.015625 -8.75 C 4.316406 -8.75 4.707031 -8.675781 5.1875 -8.53125 C 5.675781 -8.382812 6.171875 -8.195312 6.671875 -7.96875 C 7.179688 -7.738281 7.628906 -7.492188 8.015625 -7.234375 C 8.148438 -7.148438 8.21875 -7.035156 8.21875 -6.890625 C 8.21875 -6.867188 8.210938 -6.835938 8.203125 -6.796875 C 8.203125 -6.765625 8.203125 -6.75 8.203125 -6.75 C 7.972656 -5.914062 7.789062 -5.09375 7.65625 -4.28125 C 7.519531 -3.46875 7.421875 -2.71875 7.359375 -2.03125 C 7.296875 -1.351562 7.257812 -0.785156 7.25 -0.328125 C 7.238281 -0.242188 7.207031 -0.171875 7.15625 -0.109375 C 7.113281 -0.0546875 7.050781 -0.03125 6.96875 -0.03125 C 6.882812 -0.03125 6.726562 -0.0546875 6.5 -0.109375 C 6.28125 -0.160156 6.046875 -0.21875 5.796875 -0.28125 C 5.554688 -0.34375 5.363281 -0.390625 5.21875 -0.421875 Z M 4.375 -3.265625 C 4.476562 -3.367188 4.539062 -3.484375 4.5625 -3.609375 C 4.613281 -4.003906 4.6875 -4.398438 4.78125 -4.796875 C 4.875 -5.191406 4.957031 -5.582031 5.03125 -5.96875 L 5.03125 -6.046875 C 5.03125 -6.171875 4.988281 -6.257812 4.90625 -6.3125 C 4.832031 -6.375 4.738281 -6.40625 4.625 -6.40625 C 4.382812 -6.40625 4.175781 -6.296875 4 -6.078125 C 3.820312 -5.859375 3.664062 -5.582031 3.53125 -5.25 C 3.40625 -4.925781 3.3125 -4.59375 3.25 -4.25 C 3.1875 -3.914062 3.15625 -3.628906 3.15625 -3.390625 C 3.15625 -2.910156 3.234375 -2.671875 3.390625 -2.671875 C 3.515625 -2.671875 3.671875 -2.734375 3.859375 -2.859375 C 4.046875 -2.984375 4.21875 -3.117188 4.375 -3.265625 Z M 4.375 -3.265625 "/></g></g></g><g fill="#0ba14b" fill-opacity="1"><g transform="translate(18.246767, 16.405619)"><g><path d="M 0.4375 -5.375 C 0.4375 -5.625 0.492188 -5.929688 0.609375 -6.296875 C 0.722656 -6.671875 0.894531 -7.046875 1.125 -7.421875 C 1.363281 -7.804688 1.664062 -8.125 2.03125 -8.375 C 2.40625 -8.632812 2.847656 -8.765625 3.359375 -8.765625 C 3.460938 -8.765625 3.65625 -8.734375 3.9375 -8.671875 C 4.226562 -8.609375 4.550781 -8.515625 4.90625 -8.390625 C 5.269531 -8.265625 5.625 -8.109375 5.96875 -7.921875 C 6.320312 -7.742188 6.609375 -7.535156 6.828125 -7.296875 C 7.054688 -7.066406 7.171875 -6.804688 7.171875 -6.515625 C 7.171875 -6.296875 7.113281 -6.0625 7 -5.8125 C 6.882812 -5.5625 6.789062 -5.378906 6.71875 -5.265625 C 6.601562 -5.097656 6.445312 -5.015625 6.25 -5.015625 C 6.125 -5.003906 5.957031 -4.992188 5.75 -4.984375 C 5.539062 -4.984375 5.332031 -4.984375 5.125 -4.984375 C 4.914062 -4.984375 4.753906 -4.984375 4.640625 -4.984375 C 4.472656 -5.003906 4.390625 -5.09375 4.390625 -5.25 C 4.390625 -5.300781 4.421875 -5.441406 4.484375 -5.671875 C 4.546875 -5.898438 4.578125 -6.117188 4.578125 -6.328125 C 4.578125 -6.554688 4.488281 -6.671875 4.3125 -6.671875 C 4.144531 -6.671875 3.988281 -6.585938 3.84375 -6.421875 C 3.695312 -6.265625 3.578125 -6.082031 3.484375 -5.875 C 3.398438 -5.664062 3.359375 -5.492188 3.359375 -5.359375 C 3.359375 -5.148438 3.46875 -4.984375 3.6875 -4.859375 C 3.90625 -4.734375 4.175781 -4.617188 4.5 -4.515625 C 4.820312 -4.421875 5.144531 -4.304688 5.46875 -4.171875 C 5.789062 -4.046875 6.0625 -3.878906 6.28125 -3.671875 C 6.5 -3.460938 6.609375 -3.179688 6.609375 -2.828125 C 6.609375 -2.296875 6.460938 -1.816406 6.171875 -1.390625 C 5.890625 -0.960938 5.515625 -0.625 5.046875 -0.375 C 4.578125 -0.125 4.078125 0 3.546875 0 C 2.960938 0 2.367188 -0.0859375 1.765625 -0.265625 C 1.160156 -0.441406 0.664062 -0.671875 0.28125 -0.953125 C 0.207031 -1.003906 0.15625 -1.066406 0.125 -1.140625 C 0.09375 -1.222656 0.078125 -1.304688 0.078125 -1.390625 C 0.078125 -1.429688 0.0976562 -1.539062 0.140625 -1.71875 C 0.191406 -1.894531 0.242188 -2.085938 0.296875 -2.296875 C 0.359375 -2.503906 0.410156 -2.664062 0.453125 -2.78125 C 0.535156 -2.945312 0.632812 -3.03125 0.75 -3.03125 C 0.800781 -3.03125 0.847656 -3.019531 0.890625 -3 C 0.941406 -2.976562 0.984375 -2.957031 1.015625 -2.9375 C 1.359375 -2.75 1.71875 -2.578125 2.09375 -2.421875 C 2.476562 -2.273438 2.828125 -2.203125 3.140625 -2.203125 C 3.273438 -2.203125 3.421875 -2.226562 3.578125 -2.28125 C 3.742188 -2.332031 3.832031 -2.414062 3.84375 -2.53125 C 3.84375 -2.65625 3.726562 -2.753906 3.5 -2.828125 C 3.269531 -2.910156 2.988281 -3 2.65625 -3.09375 C 2.320312 -3.195312 1.984375 -3.335938 1.640625 -3.515625 C 1.304688 -3.691406 1.019531 -3.925781 0.78125 -4.21875 C 0.550781 -4.507812 0.4375 -4.894531 0.4375 -5.375 Z M 0.4375 -5.375 "/></g></g></g><g fill="#0ba14b" fill-opacity="1"><g transform="translate(25.313646, 16.405619)"><g><path d="M 2.921875 -12.421875 C 3.535156 -12.421875 4.019531 -12.269531 4.375 -11.96875 C 4.726562 -11.675781 4.90625 -11.316406 4.90625 -10.890625 C 4.90625 -10.410156 4.726562 -10.007812 4.375 -9.6875 C 4.03125 -9.363281 3.566406 -9.203125 2.984375 -9.203125 C 2.484375 -9.203125 2.109375 -9.351562 1.859375 -9.65625 C 1.609375 -9.96875 1.484375 -10.34375 1.484375 -10.78125 C 1.484375 -11.082031 1.566406 -11.359375 1.734375 -11.609375 C 1.910156 -11.859375 2.101562 -12.066406 2.3125 -12.234375 C 2.46875 -12.359375 2.671875 -12.421875 2.921875 -12.421875 Z M 2.78125 -0.3125 C 2.75 -0.113281 2.640625 -0.015625 2.453125 -0.015625 C 2.378906 -0.015625 2.242188 -0.0351562 2.046875 -0.078125 C 1.859375 -0.117188 1.648438 -0.171875 1.421875 -0.234375 C 1.191406 -0.296875 0.984375 -0.359375 0.796875 -0.421875 C 0.609375 -0.484375 0.46875 -0.53125 0.375 -0.5625 C 0.195312 -0.632812 0.109375 -0.789062 0.109375 -1.03125 C 0.128906 -1.40625 0.171875 -1.847656 0.234375 -2.359375 C 0.296875 -2.878906 0.367188 -3.425781 0.453125 -4 C 0.535156 -4.570312 0.625 -5.140625 0.71875 -5.703125 C 0.820312 -6.265625 0.925781 -6.773438 1.03125 -7.234375 C 1.144531 -7.703125 1.25 -8.078125 1.34375 -8.359375 C 1.394531 -8.546875 1.535156 -8.640625 1.765625 -8.640625 C 1.828125 -8.640625 1.957031 -8.617188 2.15625 -8.578125 C 2.351562 -8.546875 2.578125 -8.5 2.828125 -8.4375 C 3.078125 -8.382812 3.304688 -8.328125 3.515625 -8.265625 C 3.722656 -8.210938 3.863281 -8.171875 3.9375 -8.140625 C 4.082031 -8.066406 4.15625 -7.957031 4.15625 -7.8125 C 4.15625 -7.800781 4.148438 -7.78125 4.140625 -7.75 C 4.140625 -7.726562 4.140625 -7.71875 4.140625 -7.71875 C 3.960938 -6.96875 3.785156 -6.144531 3.609375 -5.25 C 3.429688 -4.363281 3.269531 -3.484375 3.125 -2.609375 C 2.976562 -1.742188 2.863281 -0.976562 2.78125 -0.3125 Z M 2.78125 -0.3125 "/></g></g></g><g fill="#0ba14b" fill-opacity="1"><g transform="translate(29.194494, 16.405619)"><g><path d="M 3.625 -2.28125 C 3.820312 -2.28125 4.003906 -2.394531 4.171875 -2.625 C 4.335938 -2.863281 4.484375 -3.160156 4.609375 -3.515625 C 4.734375 -3.867188 4.828125 -4.234375 4.890625 -4.609375 C 4.960938 -4.984375 5 -5.3125 5 -5.59375 C 5 -5.894531 4.957031 -6.132812 4.875 -6.3125 C 4.789062 -6.488281 4.671875 -6.578125 4.515625 -6.578125 C 4.335938 -6.578125 4.164062 -6.457031 4 -6.21875 C 3.84375 -5.976562 3.695312 -5.675781 3.5625 -5.3125 C 3.425781 -4.945312 3.316406 -4.570312 3.234375 -4.1875 C 3.148438 -3.800781 3.109375 -3.460938 3.109375 -3.171875 C 3.109375 -2.910156 3.148438 -2.695312 3.234375 -2.53125 C 3.328125 -2.363281 3.457031 -2.28125 3.625 -2.28125 Z M 7.8125 -5.171875 C 7.8125 -4.890625 7.773438 -4.53125 7.703125 -4.09375 C 7.628906 -3.65625 7.507812 -3.203125 7.34375 -2.734375 C 7.175781 -2.265625 6.953125 -1.820312 6.671875 -1.40625 C 6.390625 -0.988281 6.046875 -0.648438 5.640625 -0.390625 C 5.234375 -0.128906 4.75 0 4.1875 0 C 4.007812 0 3.765625 -0.0234375 3.453125 -0.078125 C 3.148438 -0.140625 2.828125 -0.234375 2.484375 -0.359375 C 2.148438 -0.484375 1.828125 -0.644531 1.515625 -0.84375 C 1.203125 -1.050781 0.953125 -1.296875 0.765625 -1.578125 C 0.578125 -1.835938 0.445312 -2.128906 0.375 -2.453125 C 0.3125 -2.785156 0.28125 -3.160156 0.28125 -3.578125 C 0.28125 -3.929688 0.328125 -4.328125 0.421875 -4.765625 C 0.515625 -5.210938 0.648438 -5.671875 0.828125 -6.140625 C 1.015625 -6.609375 1.242188 -7.039062 1.515625 -7.4375 C 1.796875 -7.832031 2.117188 -8.148438 2.484375 -8.390625 C 2.859375 -8.640625 3.285156 -8.765625 3.765625 -8.765625 C 3.890625 -8.765625 4.082031 -8.734375 4.34375 -8.671875 C 4.613281 -8.609375 4.914062 -8.515625 5.25 -8.390625 C 5.582031 -8.273438 5.910156 -8.132812 6.234375 -7.96875 C 6.566406 -7.800781 6.84375 -7.609375 7.0625 -7.390625 C 7.332031 -7.140625 7.523438 -6.796875 7.640625 -6.359375 C 7.753906 -5.929688 7.8125 -5.535156 7.8125 -5.171875 Z M 7.8125 -5.171875 "/></g></g></g><g fill="#0ba14b" fill-opacity="1"><g transform="translate(37.125672, 16.405619)"><g><path d="M 4.125 -7.3125 C 4.40625 -7.726562 4.703125 -8.066406 5.015625 -8.328125 C 5.335938 -8.585938 5.648438 -8.71875 5.953125 -8.71875 C 6.148438 -8.71875 6.375 -8.648438 6.625 -8.515625 C 6.875 -8.378906 7.113281 -8.203125 7.34375 -7.984375 C 7.570312 -7.765625 7.757812 -7.535156 7.90625 -7.296875 C 8.050781 -7.066406 8.125 -6.84375 8.125 -6.625 C 8.125 -6.457031 8.097656 -6.191406 8.046875 -5.828125 C 7.992188 -5.472656 7.925781 -5.050781 7.84375 -4.5625 C 7.769531 -4.082031 7.679688 -3.582031 7.578125 -3.0625 C 7.472656 -2.539062 7.367188 -2.039062 7.265625 -1.5625 C 7.160156 -1.082031 7.0625 -0.664062 6.96875 -0.3125 C 6.945312 -0.226562 6.898438 -0.15625 6.828125 -0.09375 C 6.753906 -0.0390625 6.671875 -0.015625 6.578125 -0.015625 C 6.441406 -0.015625 6.222656 -0.0546875 5.921875 -0.140625 C 5.617188 -0.234375 5.328125 -0.335938 5.046875 -0.453125 C 4.765625 -0.578125 4.566406 -0.675781 4.453125 -0.75 C 4.304688 -0.851562 4.234375 -0.976562 4.234375 -1.125 C 4.234375 -1.15625 4.234375 -1.179688 4.234375 -1.203125 C 4.242188 -1.234375 4.25 -1.25 4.25 -1.25 C 4.3125 -1.488281 4.382812 -1.800781 4.46875 -2.1875 C 4.550781 -2.582031 4.632812 -2.992188 4.71875 -3.421875 C 4.8125 -3.859375 4.882812 -4.269531 4.9375 -4.65625 C 5 -5.050781 5.03125 -5.375 5.03125 -5.625 C 5.03125 -5.894531 4.988281 -6.03125 4.90625 -6.03125 C 4.820312 -6.03125 4.671875 -5.96875 4.453125 -5.84375 C 4.242188 -5.71875 4.050781 -5.566406 3.875 -5.390625 C 3.800781 -5.304688 3.742188 -5.21875 3.703125 -5.125 C 3.660156 -5.03125 3.628906 -4.9375 3.609375 -4.84375 C 3.503906 -4.320312 3.394531 -3.769531 3.28125 -3.1875 C 3.175781 -2.613281 3.070312 -2.070312 2.96875 -1.5625 C 2.863281 -1.050781 2.78125 -0.632812 2.71875 -0.3125 C 2.65625 -0.125 2.539062 -0.03125 2.375 -0.03125 C 2.226562 -0.03125 2.003906 -0.0664062 1.703125 -0.140625 C 1.410156 -0.222656 1.125 -0.316406 0.84375 -0.421875 C 0.5625 -0.523438 0.367188 -0.601562 0.265625 -0.65625 C 0.191406 -0.707031 0.132812 -0.769531 0.09375 -0.84375 C 0.0625 -0.925781 0.046875 -1.003906 0.046875 -1.078125 C 0.046875 -1.109375 0.046875 -1.140625 0.046875 -1.171875 C 0.0546875 -1.203125 0.0625 -1.21875 0.0625 -1.21875 C 0.125 -1.5 0.191406 -1.878906 0.265625 -2.359375 C 0.347656 -2.835938 0.4375 -3.367188 0.53125 -3.953125 C 0.625 -4.535156 0.710938 -5.117188 0.796875 -5.703125 C 0.890625 -6.285156 0.972656 -6.820312 1.046875 -7.3125 C 1.117188 -7.800781 1.175781 -8.195312 1.21875 -8.5 C 1.238281 -8.582031 1.285156 -8.648438 1.359375 -8.703125 C 1.429688 -8.753906 1.507812 -8.78125 1.59375 -8.78125 C 1.707031 -8.78125 1.898438 -8.753906 2.171875 -8.703125 C 2.453125 -8.660156 2.726562 -8.613281 3 -8.5625 C 3.28125 -8.507812 3.476562 -8.457031 3.59375 -8.40625 C 3.78125 -8.34375 3.882812 -8.1875 3.90625 -7.9375 L 3.9375 -7.375 C 3.9375 -7.269531 3.957031 -7.21875 4 -7.21875 C 4.019531 -7.21875 4.046875 -7.234375 4.078125 -7.265625 C 4.109375 -7.296875 4.125 -7.3125 4.125 -7.3125 Z M 4.125 -7.3125 "/></g></g></g><g fill="#0ba14b" fill-opacity="1"><g transform="translate(45.294106, 16.405619)"><g><path d="M 5.21875 -0.421875 C 5.070312 -0.460938 4.972656 -0.53125 4.921875 -0.625 C 4.867188 -0.71875 4.832031 -0.800781 4.8125 -0.875 L 4.765625 -1.4375 C 4.765625 -1.53125 4.742188 -1.578125 4.703125 -1.578125 C 4.660156 -1.578125 4.625 -1.539062 4.59375 -1.46875 C 4.320312 -1.007812 4.039062 -0.648438 3.75 -0.390625 C 3.46875 -0.128906 3.191406 0 2.921875 0 C 2.617188 0 2.3125 -0.078125 2 -0.234375 C 1.695312 -0.398438 1.410156 -0.625 1.140625 -0.90625 C 0.878906 -1.195312 0.664062 -1.523438 0.5 -1.890625 C 0.332031 -2.265625 0.25 -2.65625 0.25 -3.0625 C 0.25 -3.46875 0.289062 -3.921875 0.375 -4.421875 C 0.46875 -4.929688 0.601562 -5.4375 0.78125 -5.9375 C 0.957031 -6.445312 1.191406 -6.910156 1.484375 -7.328125 C 1.785156 -7.753906 2.144531 -8.097656 2.5625 -8.359375 C 2.976562 -8.617188 3.460938 -8.75 4.015625 -8.75 C 4.316406 -8.75 4.707031 -8.675781 5.1875 -8.53125 C 5.675781 -8.382812 6.171875 -8.195312 6.671875 -7.96875 C 7.179688 -7.738281 7.628906 -7.492188 8.015625 -7.234375 C 8.148438 -7.148438 8.21875 -7.035156 8.21875 -6.890625 C 8.21875 -6.867188 8.210938 -6.835938 8.203125 -6.796875 C 8.203125 -6.765625 8.203125 -6.75 8.203125 -6.75 C 7.972656 -5.914062 7.789062 -5.09375 7.65625 -4.28125 C 7.519531 -3.46875 7.421875 -2.71875 7.359375 -2.03125 C 7.296875 -1.351562 7.257812 -0.785156 7.25 -0.328125 C 7.238281 -0.242188 7.207031 -0.171875 7.15625 -0.109375 C 7.113281 -0.0546875 7.050781 -0.03125 6.96875 -0.03125 C 6.882812 -0.03125 6.726562 -0.0546875 6.5 -0.109375 C 6.28125 -0.160156 6.046875 -0.21875 5.796875 -0.28125 C 5.554688 -0.34375 5.363281 -0.390625 5.21875 -0.421875 Z M 4.375 -3.265625 C 4.476562 -3.367188 4.539062 -3.484375 4.5625 -3.609375 C 4.613281 -4.003906 4.6875 -4.398438 4.78125 -4.796875 C 4.875 -5.191406 4.957031 -5.582031 5.03125 -5.96875 L 5.03125 -6.046875 C 5.03125 -6.171875 4.988281 -6.257812 4.90625 -6.3125 C 4.832031 -6.375 4.738281 -6.40625 4.625 -6.40625 C 4.382812 -6.40625 4.175781 -6.296875 4 -6.078125 C 3.820312 -5.859375 3.664062 -5.582031 3.53125 -5.25 C 3.40625 -4.925781 3.3125 -4.59375 3.25 -4.25 C 3.1875 -3.914062 3.15625 -3.628906 3.15625 -3.390625 C 3.15625 -2.910156 3.234375 -2.671875 3.390625 -2.671875 C 3.515625 -2.671875 3.671875 -2.734375 3.859375 -2.859375 C 4.046875 -2.984375 4.21875 -3.117188 4.375 -3.265625 Z M 4.375 -3.265625 "/></g></g></g><g fill="#0ba14b" fill-opacity="1"><g transform="translate(53.44559, 16.405619)"><g><path d="M 2.765625 -0.328125 C 2.742188 -0.140625 2.640625 -0.046875 2.453125 -0.046875 C 2.378906 -0.046875 2.242188 -0.0664062 2.046875 -0.109375 C 1.859375 -0.160156 1.648438 -0.21875 1.421875 -0.28125 C 1.191406 -0.351562 0.984375 -0.414062 0.796875 -0.46875 C 0.617188 -0.53125 0.492188 -0.578125 0.421875 -0.609375 C 0.304688 -0.648438 0.234375 -0.71875 0.203125 -0.8125 C 0.171875 -0.90625 0.15625 -0.992188 0.15625 -1.078125 C 0.15625 -1.441406 0.1875 -1.910156 0.25 -2.484375 C 0.320312 -3.066406 0.410156 -3.703125 0.515625 -4.390625 C 0.628906 -5.085938 0.757812 -5.800781 0.90625 -6.53125 C 1.0625 -7.257812 1.210938 -7.957031 1.359375 -8.625 C 1.515625 -9.289062 1.664062 -9.882812 1.8125 -10.40625 C 1.957031 -10.9375 2.085938 -11.335938 2.203125 -11.609375 C 2.253906 -11.785156 2.375 -11.875 2.5625 -11.875 C 2.625 -11.875 2.765625 -11.84375 2.984375 -11.78125 C 3.203125 -11.726562 3.429688 -11.664062 3.671875 -11.59375 C 3.921875 -11.519531 4.148438 -11.445312 4.359375 -11.375 C 4.566406 -11.3125 4.703125 -11.265625 4.765625 -11.234375 C 4.910156 -11.179688 4.984375 -11.078125 4.984375 -10.921875 C 4.984375 -10.898438 4.976562 -10.875 4.96875 -10.84375 C 4.96875 -10.820312 4.96875 -10.8125 4.96875 -10.8125 C 4.832031 -10.40625 4.664062 -9.828125 4.46875 -9.078125 C 4.269531 -8.328125 4.066406 -7.46875 3.859375 -6.5 C 3.648438 -5.539062 3.445312 -4.53125 3.25 -3.46875 C 3.0625 -2.40625 2.898438 -1.359375 2.765625 -0.328125 Z M 2.765625 -0.328125 "/></g></g></g></g></g></g></g></g></svg>